<svg xmlns="http://www.w3.org/2000/svg" viewBox="0 0 447.9 325"><title>Logo_svg</title><g id="Colour"><path d="M470.7,134h0a5.2,5.2,0,0,0,.7-2.1.4.4,0,0,0-.6-.2c-.5.6-.8,1.3-1.3,2a29.5,29.5,0,0,1-2.5,2.5l-4.5,4.6a.1.1,0,0,0-.1.1c-7.6,5.6-15.4,11-24,15.3-2.2,1.1-4.6,2.1-6.9,3h-.8a45.8,45.8,0,0,0-6.4,1.5h-.2l-1.6.3a25.3,25.3,0,0,1-4.8.8,2.2,2.2,0,0,0-1.8.8,54.6,54.6,0,0,0-5.7.4,2,2,0,0,0-1.1.6,1,1,0,0,0-.9.1,17.9,17.9,0,0,0-2.2,3.8c-.8,1.5-1.7,3-2.6,4.4a53.8,53.8,0,0,1-5.2,6.4H398l-.6-.3c-2.5-.1-4.8.7-7.3.5s-5.1-.9-7.7-1.3-3.3,1.6-4.8,2.8l-5.5,4.3c-3.2-3.2-7.8-4.3-12-5.6a22.1,22.1,0,0,0-5.9-1.9,38.1,38.1,0,0,0-4.7-.7,12.1,12.1,0,0,0-3.8.1,67.5,67.5,0,0,0-9.6-8.1l-3.9-2.5c-1-1.8-3.1-3-4.6-4.2a59.2,59.2,0,0,0-6.8-4.2.8.8,0,0,0-.9.2c-2.6-1.8-5.4-3.5-8.2-5.1l-6.3-3.3-4.4-2.2c-1.3-1.2-3.4-1.9-4.9-2.6l-6.6-2.8a121.2,121.2,0,0,0-14.5-4.4c-4.9-1.3-9.9-2.2-14.9-3.1l-7.3-1.1-4.2-.6c.7-.8,2.8-.9,3.6-1l5.1-.6c3.4-.4,6.9-.6,10.3-.8,6.9-.3,13.8,0,20.7.2l.7-.2h.1c2.5-2.1,3.4-5.8,5.5-8.3s4.8-4.7,6.8-7.4a.9.9,0,0,0,.2-.8,5.7,5.7,0,0,1,1.8-.3,41.9,41.9,0,0,1,5,.3c3.4.3,6.7.7,10.1,1.2a1.3,1.3,0,0,0,1.3-.6h.1c1.4-1.2,2.2-2.7,3.5-3.9s3.2-2.5,4.7-4,6.2-4.7,8.7-7.7a1,1,0,0,0,.7-.2c3.5-2.8,7.2-5.8,11.3-7.8l1.2-.6a1.1,1.1,0,0,0-1.1-1.9l-.9.5c-.1-.6-.4-1.1-1.1-1a58.1,58.1,0,0,1-12.5-.4c-4.2-.5-8.3-.9-12.5-1.1l-13.2-.6c-4-.2-8.8-1-12.6.4a1.8,1.8,0,0,0-.7.5c-1.2-.5-2.8,0-4.1.1l-5.6.5-10.9.8c-3.5.1-7-.2-10.5.2s-7.2,1-10.8.6a1.4,1.4,0,0,0-1.5,1c-3.5-.3-7.5.9-11,1.5l-11.4,2c-7.4,1.4-15.1,2.8-22.2,5.5l-.3.2a14.6,14.6,0,0,0-5.1.7l-5.3,1.2-10.4,2.9-10.4,3.3a90.3,90.3,0,0,0-9.9,3.6c-.4.2-.7.4-.8.8-3.6,1.3-6.9,3.1-10.4,4.7s-7.4,3-10.9,4.9c-6.7,3.3-12.7,7.9-18.4,12.7a1.4,1.4,0,0,0-.4,1.6c-1.6.9-2.9,2.6-4.2,3.9l-5.3,5.3a62.8,62.8,0,0,0-4.9,5.4c-1.3,1.6-3.1,3.5-3.4,5.6s-2.4,3.9-3.4,5.8-2.6,5.3-3.8,7.9a77.7,77.7,0,0,0-2.8,7.6c-.9,2.7-2.4,5.6-2.7,8.5a1.1,1.1,0,0,0,.6,1.1,26.1,26.1,0,0,0-1.3,6.3,45.1,45.1,0,0,0-.5,10.4,50.9,50.9,0,0,0,1.8,9.3,41,41,0,0,1,1,4.8c.1,1.6-.8,3-.8,4.6a23.3,23.3,0,0,0-2.4,4.1,58.7,58.7,0,0,0-3.1,8.9c-1.5,6.4-4.7,13.9-4.7,20.2A159.2,159.2,0,0,0,87,277a71.4,71.4,0,0,0,1.5,7.8,2.7,2.7,0,0,0-.9,2.9,331.8,331.8,0,0,0,14.2,34.4,2.4,2.4,0,0,0,2.9,1.3c1.8,3.1,3.7,6.1,5.8,9.1a96.3,96.3,0,0,0,14.3,16.9,73.1,73.1,0,0,0,18.9,12.5,42.5,42.5,0,0,1,8.8,5,2.8,2.8,0,0,0-1.4,3.2c1.8,6.7,6.9,12.6,12.7,16.2a34.6,34.6,0,0,0,9.4,4.3,75.7,75.7,0,0,0,12.5,2,117.7,117.7,0,0,1,23.5,4.6,70.5,70.5,0,0,1,10.8,4.1c3.5,1.6,6.7,4,10.3,5.6a10.1,10.1,0,0,0,11.5-2.3,10.4,10.4,0,0,0,2.5-9.8,1.7,1.7,0,0,0-.1-1.2,2.8,2.8,0,0,0-.1-.9c-.7-2.4-2.6-4.5-4.1-6.4a25.3,25.3,0,0,0-4.7-5c-.7-.9-1.2-1-1.9-1.9-2.9-3.3-5.3-5.5-7.3-9.4,16.5.8,33,1.1,49.6,1,8.7,0,17.5,0,26.1-2.1a99.6,99.6,0,0,0,12.8-4,1.6,1.6,0,0,0,.9-.3h.3l8.7-3.5c7.8-3.2,15.4-7.2,21.2-13.4a3.5,3.5,0,0,0,.9-2.5l3.1-2.5a1.8,1.8,0,0,0,.7-.5,93.5,93.5,0,0,0,15.6-17,2.9,2.9,0,0,0,.5-1.9,106.4,106.4,0,0,0,7.4-9.2c6.8-9.7,9.9-21.4,11.5-33,.5-3.5.9-6.9,1.2-10.4a45.4,45.4,0,0,0-.5-10.4,3.7,3.7,0,0,0-.5-1.1c17.6-11.7,32.4-27,45.5-43.5,3.5-4.4,7.6-9,10-14.2h0c1.2-.4,1.7-1.6,2.3-2.7a35.7,35.7,0,0,1,2.5-3.8,45.3,45.3,0,0,0,2.6-4,8.3,8.3,0,0,0,1.4-3.2,1.5,1.5,0,0,0,.9-.6c1.5-2.7,3-5.5,4.4-8.3a48.9,48.9,0,0,0,3.4-8.2l.4-.4a67.6,67.6,0,0,0,3.3-8,73.3,73.3,0,0,0,3-8.6v-.2a7.8,7.8,0,0,0,1.6-3.3,36.7,36.7,0,0,0,1.4-6.4.2.2,0,0,0,0-.3l.3-.7a8.7,8.7,0,0,0,.7-1.7,10.6,10.6,0,0,0,.4-1.9,1.1,1.1,0,0,0-.1-.8C470.1,136.9,470.9,135.4,470.7,134ZM322.3,323.4l-.3.2c-3.1,1.9-5.6,4.7-8.2,7.2a47,47,0,0,1-8.5,6.1,65.2,65.2,0,0,1-8.3,4.3,73.8,73.8,0,0,1-10.2,2.9c-3.5.8-7,1.5-10.6,2s-7.6.3-11.4.6l-23.5,2c-3.8.3-7.6.5-11.4,1s-6.3.8-9.5.3a.8.8,0,0,1-1.3-.1,22.6,22.6,0,0,1-1.1-2.2l-.3-.3-.2-.3h0c-1.6-2.8-2.9-5.8-4.9-8.3a26.6,26.6,0,0,0-7.3-6,36.8,36.8,0,0,0-16.1-5.5,26.4,26.4,0,0,0-8.4.9,9.4,9.4,0,0,1-2.9.6,6.5,6.5,0,0,1-3-1.7c-9.1-7-15.1-16.2-19.8-26.6a.6.6,0,0,1,0-.6,50.8,50.8,0,0,0-2.3-4.7,25.3,25.3,0,0,1-1.9-4.8,102.4,102.4,0,0,1-3.4-11.5,52.1,52.1,0,0,1-1.4-11.8c.1-1.9.3-3.7.4-5.5a11.5,11.5,0,0,1,.8-4.1c.2-.4.5-.5.8-.3s2.6,1.4,3.3,2a26.5,26.5,0,0,1,3.4,3.3,59.3,59.3,0,0,0,9.7,5c3.9,1.8,7.4,3.8,11.1,5.9a58.1,58.1,0,0,0,12,5.2,42.1,42.1,0,0,1,10.3,4.2,39.5,39.5,0,0,1,11.2,3,62.7,62.7,0,0,0,11.9,3.6c4.4.9,8.7,1.9,13.1,2.6l6.4,1.2,3.9.4a.8.8,0,0,1,1.1-.1c3.8,3,8.6,4.5,11.9,8.2a.8.8,0,0,1-.1,1.2c2.4,1.5,4.9,2.9,7.4,4.3s4.9,3.2,7.5,4.5,4,1.3,5.8,2.3a109.2,109.2,0,0,0,21.1,6.3,73.5,73.5,0,0,0,11.5,1.2c3.8.1,7.5.5,11.3.6A.7.7,0,0,1,322.3,323.4Zm15.9-32.1c-.6,2.7-1.3,5.5-2.1,8.2-1.4,4.7-3,9.5-6.1,13.3-.5.7-1.5-.2-1.1-.9,2-3.5,1.4-7.9.7-11.7s-1.8-7.8-2.8-11.8a.6.6,0,0,1,0-1.2h.1l.5-.2a44.3,44.3,0,0,1,4.9-1.3c2-.6,3.8-1.8,5.9-2.2.5-.1.8.2.9.8C339.4,286.6,338.7,288.9,338.2,291.3Z" transform="translate(-27.4 -84)" style="fill:#840202"/><path d="M164.5,389.1c-2.1-1.3-4.3-2.5-6.5-3.7-.3-.1-.5-.2-.7-.1a1.7,1.7,0,0,0-2.1.2c-3.2,3.1-7.9,4.3-11.9,6-2.2.9-4.3,2-6.4,3.1l-7.7,1a3.1,3.1,0,0,0-2.1.1H127l-2.6.2c0-.1,0-.1-.1-.1a1.7,1.7,0,0,0-1.7,0,1.5,1.5,0,0,0-1.6-.3,1.7,1.7,0,0,0-2.5-.6,1.6,1.6,0,0,0-2.5-.4l-.3.4a1.4,1.4,0,0,0-2.4.2,1,1,0,0,0-1-.2l-1.5-1.3-3.2-3a46.9,46.9,0,0,1-5.4-6.4c-3.2-4.2-6-8.8-8.9-13.3.5-.5-3.1-5.3-5.2-6.6a33,33,0,0,1-3.2-1.8c-1-.7-1.7-1.5-3-1.6a13.8,13.8,0,0,1-2.5-2.7c-1.8-2.4-3.4-5-5.1-7.6a32.3,32.3,0,0,0-3.7-5.4c0-.1,0-.1-.1-.2s-.7-2.1-.7-2.3-.2-.2-.3-.3-.2,0-.2-.1l-2.2-1.3c-1.5-.9-4-2.3-6.1-2.3,0-.1,0-.1-.1-.1l-.7-.5-.3-.3h-.3l-.5-.2H59a103.2,103.2,0,0,1-9.6-7.9.4.4,0,0,0-.1-.3l-1-.9a1.3,1.3,0,0,1-.1-.6c-.1-.2-.4-.2-.6-.1l-.6-1h0a21.4,21.4,0,0,0-.9-2.7c-.4-.9-.8-1.8-1.3-2.7h0a6.3,6.3,0,0,0-1-2.9,26.8,26.8,0,0,0-1.2-3c.1,0,.1-.1.1-.2a37.5,37.5,0,0,0-1.7-4.7,16.7,16.7,0,0,0-.8-2,7,7,0,0,0-.6-1.9h0a21.3,21.3,0,0,0-1.1-3.3c-.2-.5-.6-2-1.2-2.3h-.1c0,.1-.1.1-.1.2h0a10.2,10.2,0,0,0,.6,2.5c.3.9.6,1.9.8,2.8a.1.1,0,0,1,.1.1h0c0,.1.1.2.1.3s.1.3.2.5l.3.9a11.3,11.3,0,0,0,.8,2.4h0a1.4,1.4,0,0,0,.2.6.1.1,0,0,0,.1.1h0l.3.8c0,.2.1.3.1.5v.2l.6,1.5a.1.1,0,0,0,.1.1c0,.2.1.5.1.7h0c.1.2.2.3.2.5a7.6,7.6,0,0,0,.4,1.1h0a18.2,18.2,0,0,0,1.1,3h0l.3.8c-.1,0-.1.1-.1.3l.9,1.9h.1a2.4,2.4,0,0,0,.2.8c.1.1.1.2.2.4v.2h0v.2a5.8,5.8,0,0,0,.8,2.2h.1a4.5,4.5,0,0,0,.3,1.1c.2.5.3,1.1.5,1.6a1.9,1.9,0,0,0-.2.8c0,5.8,0,11.7.1,17.5s-1.4,11.1,1,15.7c.3.6,3.1,4.5,4.6,6.6s2.2,4.4,3.5,6.6c2.4,4.1,5,8.6,5.4,13.5a11.7,11.7,0,0,1,.6,2,7.5,7.5,0,0,1,.7,1.2l1.2.2c7.6-.5,13.5.7,20.4.8,3.5,0,7.1,1.6,10.6,1.5s6.3,1,9.6,1.8c6.6,1.4,13.8,3.7,20.5,4.3a52.1,52.1,0,0,0,19.2-2.4,142.4,142.4,0,0,0,20.7-8.4A1.5,1.5,0,0,0,164.5,389.1Z" transform="translate(-27.4 -84)" style="fill:#840202"/><path d="M70.5,358.3c.2-.1.3-.4,0-.5-5-2.8-8.8-7.1-12-11.8a50.7,50.7,0,0,1-4-7.2,56,56,0,0,1-2.6-6.8H52c-.4-2.2-2.4-3.6-4-4.8s-.5,0-.4.2A79.4,79.4,0,0,0,52.3,339c1.8,3.5,3.6,7.1,5.5,10.6s4,7,6.2,10.3c1.1,1.6,2.3,3.2,3.5,4.7a9.5,9.5,0,0,0,1.6,1.9.7.7,0,0,0,.9-.3C71.4,364.2,72.4,360.3,70.5,358.3Z" transform="translate(-27.4 -84)" style="fill:#630100"/><path d="M108.5,392a2,2,0,0,0-.6-.7c0-.1-.1-.1-.2-.2a22.3,22.3,0,0,1-9.9-4.8,18.1,18.1,0,0,1-5.9-8.7c-.1-.2-.4-.2-.3,0h-.3c-.4.1-.4.3-.4.6s-.2,1.7-.4,2.5A7,7,0,0,0,90,384l-.4-.2c.1-.3,0-.6.1-.8a11.5,11.5,0,0,1,.1-1.9,11,11,0,0,1,.4-3.1c.3,0,.3-.3.1-.5h0c.1-.2-.1-.3-.2-.2s-.1.2-.2.2c-4.3-.4-8.1-3.5-10.7-6.7s-5-7.5-7-11.5c-.1-.2-.3-.1-.3.1l.3.9h0a16.3,16.3,0,0,0,.2,8.2,13.5,13.5,0,0,0,4.2,6.3c2.1,1.9,4.1,3.8,6.3,5.5a40.5,40.5,0,0,0,3.4,2.3l2.8,1.7h.3l.7.5h.2a7.2,7.2,0,0,0,2.1,1.8,23.8,23.8,0,0,0,7.5,4.1c1.5.5,3,.8,4.5,1.2s2.6.9,3.9.5A.3.3,0,0,0,108.5,392Z" transform="translate(-27.4 -84)" style="fill:#630100"/><path d="M80.8,384.2c-1.7-1.7-3.4-3.3-5-5.1s-3-3.5-4.6-5.2-2.7-3.4-4.3-2a.3.3,0,0,0,.2.5c1.1,1.5,2.4,2.8,3.5,4.3l3.8,4.8a53.4,53.4,0,0,0,3.9,4.4c1.4,1.3,2.9,2.8,4.7,3.4l.4-.2C83.6,387.1,82.1,385.5,80.8,384.2Z" transform="translate(-27.4 -84)" style="fill:#630100"/><path d="M66.2,368.9c-1.5-2.3-3.2-4.5-4.6-6.7s-3-4.7-4.3-7.1a10.9,10.9,0,0,1-.8-1.5h0a1.9,1.9,0,0,0-.5-1.4l-.5-.7c.2,0,.4-.2.3-.4-1.7-3.2-3.2-6.4-4.6-9.7-.8-1.7-1.5-3.4-2.2-5.1a51.1,51.1,0,0,0-2-4.7c0-.2-.2-.1-.2.1l.3,1.1a4.7,4.7,0,0,0-.5-1c0-.1-.2,0-.1.1a29.1,29.1,0,0,0,1.2,3.9l1.5,3.9c1,2.5,2.1,4.9,3.2,7.3a131.5,131.5,0,0,0,8.2,14.7,62.8,62.8,0,0,0,5.2,7.5C65.9,369.4,66.3,369.1,66.2,368.9Z" transform="translate(-27.4 -84)" style="fill:#630100"/><path d="M74.7,390.8c-6.2.7-11-3.9-14.1-8.7A68.3,68.3,0,0,1,53,366.2a9,9,0,0,0,2.1.8c1.3.4,2.7.4,4,.8h.4l.9.3c.4.1.5-.5.2-.6-5.5-1.9-8.3-7.5-10.3-12.6a45.5,45.5,0,0,1-2.3-8,83.9,83.9,0,0,1-1-8.6h-.3a26.1,26.1,0,0,0,.3,6.2,33,33,0,0,0-.9,8.3c0,2.9.2,5.9.4,8.7.1,1,.8,1.3,1.6,1.8l1.6,1-1.7-.4c-.3,0-.5.2-.4.5a60.6,60.6,0,0,0,4.8,7.6,38.2,38.2,0,0,1,4.4,8.2c.8,2,1.4,4,2,6l.3.4a19.6,19.6,0,0,1,1.3,4.1,16.3,16.3,0,0,1,1.1,2.3,8.2,8.2,0,0,0,3,.7c3.6.3,7-.9,10.2-2.2C75,391.3,75,390.8,74.7,390.8Z" transform="translate(-27.4 -84)" style="fill:#630100"/><path d="M166.3,389.8l-3.2-2.1h0c.3-.2-.1-.7-.4-.4a.1.1,0,0,1-.1.1h-.2c-.2-.1-.3.2-.2.3s.1,0,.1.1c-4.1,3.9-9.4,6.3-14.9,7.9a72.3,72.3,0,0,1-19.1,2.8,73.8,73.8,0,0,1-36.8-8.5,71.6,71.6,0,0,1-16-11.9c-.1-.1-.3.1-.2.2l4.4,4.1a.2.2,0,0,0-.1.3,13.1,13.1,0,0,1,1.1,1.2c0,.1,0,.1.1.2l.8.7.2.3h.1l.4.3c0,.1.1.2.2.3h.1l.6.5.5.6h.2c2.5,2,5.1,4,7.7,5.7a5.9,5.9,0,0,1-4.5.9,6.9,6.9,0,0,1-3.8-1.7c.1-.1,0-.3-.3-.3h-.2c-1.9.4-3.6,1.5-5.4,2.1a.3.3,0,0,0,.1.6c3.2.4,6.5.8,9.6,1.5s5.8,1.4,8.7.5a.3.3,0,0,0,0-.6,18.6,18.6,0,0,1-2.8-2.1,73.6,73.6,0,0,0,18.3,8.3,57.7,57.7,0,0,0,37.6-1.7,91.2,91.2,0,0,0,9.5-4.5l4.7-2.5c1.3-.7,2.6-1.3,3.3-2.6S166.5,389.9,166.3,389.8Z" transform="translate(-27.4 -84)" style="fill:#630100"/><path d="M239.2,393H238c-.2-.1-.3,0-.4.1h-.1c-.1-.2-.3-.1-.5.1s-.2,0-.3.2h0a2.8,2.8,0,0,0-1.1-.8c-.5-.3-1.2-.3-1.6-.7s-.2-.2-.3-.1a.2.2,0,0,0-.2-.2c-.1-.2-.2-.1-.4-.1h0l-.4-.5h.1l1.2.6h.1l.6.3.3.2a.2.2,0,0,0,.3,0h.3l.2.2h.6c.1.2.3.1.4,0a.2.2,0,0,1,.2.2c.2.1.5.2.6,0h.5a.3.3,0,0,0,.6-.2c-.1-.7-.4-2-1.3-2l-1.1.2a3.2,3.2,0,0,1-1.4-.3l-.9-.3c-.4-.2-1.7-.6-1.9-1l.2.3c.1.7-.4.6.3.9h.4c-.4-.1-.5.1-.3.3h-.3l-.6-1.1c-.1-.1-.3,0-.2.1.9,2.4,2.3,4.7,4.7,5.8,0,.1.1.1.2.1h.4c.9.3,2.3.6,2.9-.5S239.9,393.2,239.2,393Z" transform="translate(-27.4 -84)" style="fill:#630100"/><path d="M243.3,391.1a.4.4,0,0,0-.7.2c-.2,1.9.2,3.8-.2,5.8a12.1,12.1,0,0,1-3,5.7,9.6,9.6,0,0,1-6.3,2.7,6.6,6.6,0,0,0-.6-2.5c-.1-.4-.4-.6-.6-1h0c-.1-.2-.2-.3-.2-.4h-.3a.7.7,0,0,0,.1-.9c-.1-.1-.2-.3-.4-.3s-.2.1-.3.2a6.4,6.4,0,0,1-6.3-1.2.9.9,0,0,0,.1,1.1l.9.6a.2.2,0,0,0,0,.3l.4.4h0a8.2,8.2,0,0,0,3.5,2,3.4,3.4,0,0,1,1,0,2.1,2.1,0,0,1,.8.6l.7,1.1-2.3-.8c-.4-.2-4.7-.5-4.9-.8s-.3-.4.2.7,1.8,1.1,2.7,1.5a25.7,25.7,0,0,0,4.7,1.5,11.1,11.1,0,0,0,7.6-2.5,11.7,11.7,0,0,0,3.8-6.3C244.3,396.4,244.7,393.1,243.3,391.1Zm-13.8,11h0Z" transform="translate(-27.4 -84)" style="fill:#630100"/><path d="M186,390.1h0a29.3,29.3,0,0,0,9.8.4l4.8-.4h2.5l3.5-.3c3.2-.4,5.9.3,9,1.1l2.7.9c-.4-1.2-2-2-3.8-2.4a15,15,0,0,0-4.8-1.5,7.4,7.4,0,0,0-4.2-.9h-.8a24.8,24.8,0,0,0-3.8-.2,41.6,41.6,0,0,0-7.7,1.4h-.3a1.4,1.4,0,0,0-.9-1.9c-3.1-.7-6.6,0-9.8-.4a12.4,12.4,0,0,1-4.2-1.1c-1.3-.6-2.2-1.7-3.5-2.3a1.1,1.1,0,0,0-1.5,1.2c.6,2.8,4.7,4.4,7.1,5a20.2,20.2,0,0,0,4.3.5A3.9,3.9,0,0,0,186,390.1Z" transform="translate(-27.4 -84)" style="fill:#630100"/><path d="M213.5,355.2a25.8,25.8,0,0,0-2.3-5.1c-1.3-2-4.1-5.6-6.9-5a.9.9,0,0,0-.6,1c.4,1.3,1.5,1.9,2.4,2.8a12.2,12.2,0,0,1,2.7,3.3,17.7,17.7,0,0,1,1.8,4.5c.5,1.3.6,2.4,2,2.9a.8.8,0,0,0,.9-.3C214.6,358.1,213.9,356.7,213.5,355.2Z" transform="translate(-27.4 -84)" style="fill:#630100"/><path d="M206.8,356.2c.5,1.1.9,2.2,1.3,3.3s.7,1.9,1,2.9a65.8,65.8,0,0,0,4.2,7.9c2.3,3.6,4.7,7.7,7.8,10.6a12.2,12.2,0,0,0,3.2,2h-.2a1.2,1.2,0,0,0-.5-1,26.3,26.3,0,0,1-5.8-6.2,1.3,1.3,0,0,0,.4-1.7c-1.4-3.1-2.9-6.1-4.3-9.2s-2.6-6.4-4.5-9.2a.9.9,0,0,0-.6-.3,21.9,21.9,0,0,0-2.8-6l-.2-.2A29.7,29.7,0,0,0,206.8,356.2Z" transform="translate(-27.4 -84)" style="fill:#630100"/><path d="M142.1,350.8c-9.1-2-17.4-8.6-23.8-15.2s-12.6-15.4-17.7-23.8a109.7,109.7,0,0,1-12.9-28.3c-1.1-4.2-2-8.5-2.8-12.7a130.1,130.1,0,0,0,2.6,16.4,124.9,124.9,0,0,0,17.7,40,118.4,118.4,0,0,0,15.6,19.1,1.5,1.5,0,0,0,1.9.2,30.8,30.8,0,0,0,4.7,4.2,79.4,79.4,0,0,0,9.1,6c3.2,1.7,6.4,3.5,9.6,5a40.4,40.4,0,0,0,5,1.9,36.7,36.7,0,0,1,5.1-16.4C152.1,350.2,147.4,352,142.1,350.8Z" transform="translate(-27.4 -84)" style="fill:#630100"/><path d="M150.7,244.7c-4.4,2.1-9,2.2-12.8-1.1a.5.5,0,0,0-.8.6c0,.1.1.1.1.2a1.6,1.6,0,0,0-.1,1c1.7,3.8,5.2,6.6,8.1,9.5.3.2.8.4,1.1.1a14.3,14.3,0,0,0,3.1-4.2,20.2,20.2,0,0,0,2.7-5A1,1,0,0,0,150.7,244.7Z" transform="translate(-27.4 -84)" style="fill:#630100"/><path d="M111.1,223.2a1,1,0,0,0-.4-.8l-.2-.4c0-.4-.1-.8-.1-1.1a5,5,0,0,0-.3-1.6c-.1-.9-1.1-1.5-1-.6s-.9,3.6-2.8,3.4a8.4,8.4,0,0,1-2.9-1.3,9.2,9.2,0,0,1-3.7-5c-.4-1.2-2.3-.7-2,.5a.8.8,0,0,1,.1.4.6.6,0,0,0-.3.8h.1a1,1,0,0,0-1.4.3c-1.3,2.3-2.7,4.6-4.1,6.9a5.6,5.6,0,0,0-.5.8.9.9,0,0,0,1,1.3c-1,.9-2.4,2.4-2.3,3.8s.4.6.7.4a14.5,14.5,0,0,0,1.9-2.3,9.8,9.8,0,0,1,3.3-2.3c1.5-.6,4-1.5,5.8-.9s3.3,1.2,3.9,2.2,0-.2-.4-.9h-.1a4.9,4.9,0,0,0,3.9.2l.8-.2C111.5,226.1,111.3,224.5,111.1,223.2Zm-10.4-1.5.7.7h-.6a27,27,0,0,1-2.7-3.9A40.3,40.3,0,0,0,100.7,221.7Zm3.7,3.9-1.4-.8-.3-.4a.5.5,0,0,0,.3-.5l1.6,1.3Z" transform="translate(-27.4 -84)" style="fill:#630100"/><path d="M467,136.1C385,354,162.6,264.3,162.6,264.3c34.9,27.4,103.9,30.1,103.9,30.1l28.5-1.6,23.2-3.7,4.9-1.5a1,1,0,0,0-.1.8v.3c-.3,5.8-2.1,11.3-6.2,15.6s-13.3,7.8-18.6,3.3c-.7-.5-1.3-.5-1.4.3a4.3,4.3,0,0,1-2.7,3.1,39,39,0,0,1-4.6,1.2,35.1,35.1,0,0,1-12.1-.5c-1-.3.2,1.1,1.2,1.5h.3a114.6,114.6,0,0,0,15.4,4.8c5.4,1.4,11.2,1.8,16.8,2.4l8.7.9c2,.2,4.2.5,5.8-.9s2.3-4.3,2.7-6.4a29,29,0,0,0,.6-7.8c-.3-6.4-2.2-12.5-4.1-18.5a.9.9,0,0,0-.6-.6l15.9-5q.2,3.4.6,6.9a1.1,1.1,0,0,0,2,.4c5.6-1,11.1-1.9,16.7,0a16.5,16.5,0,0,1,6.4,4c-.2.9-.5,1.8-.7,2.7-3.9,13.5-9.5,26.3-18.9,36.9-18.9,21.3-47.5,31.1-75.6,29.5-16.4-1-32.7-6.1-49.2-3.4l.6,1.1.3.5h0c.9,2.3,2,4.5,3,6.7a.6.6,0,0,0,.7.4c7.1-.4,14.3.4,21.5,1s14.4,1.4,21.6,1.9a114.2,114.2,0,0,0,40.7-3.8,120.2,120.2,0,0,0,18.4-7,1.1,1.1,0,0,0,1.3-.1l3.1-2.5a.8.8,0,0,0,.2-1l3.1-1.8a58.4,58.4,0,0,0,7.4-4.8,73.6,73.6,0,0,0,7.6-7.2l.9-.8,3.9-3.6a45.9,45.9,0,0,0,6-7.2,105.9,105.9,0,0,0,9.3-11.9.7.7,0,0,0,.8-.6c.4-.9.7-1.9,1.1-2.8a25.3,25.3,0,0,0,1.8-3.7h0a38,38,0,0,0,2.6-6.3,139.8,139.8,0,0,0,4.9-15.1,75.5,75.5,0,0,0,2.3-15c.3-4.9.9-10.3-.1-15.1a.5.5,0,0,0-.5-.4l15.2-11.4,18.9-17.8L436,209.4l9.8-14.3,5.6-10.2,7-13.9,3.8-8.5,5.4-15.9,2.5-9.7,1.7-6.3ZM383.3,260.7h0l-1.2.7.4-.3.8-.6Z" transform="translate(-27.4 -84)" style="fill:#630100"/><path d="M182,251s120.5,32.4,213.4-73l3.3-1.2s-27,37.6-71.8,63.3-99.4,35.8-145,13.4C181.9,253.5,178.9,253,182,251Z" transform="translate(-27.4 -84)" style="fill:#630100"/><path d="M190,240.8s91.6,7.3,161.7-45.3l5.5.3s-68.7,57.7-170,49.8Z" transform="translate(-27.4 -84)" style="fill:#630100"/><path d="M166.8,188.9s34.6-60.3,134.2-42.3l-3.9-3.6-18.8-6.2-27.8-5.7s-43.3,2.7-80.4,32.7C170.1,163.8,172.9,174.8,166.8,188.9Z" transform="translate(-27.4 -84)" style="fill:#630100"/><path d="M98.7,214.2S67,87.2,338.3,87.1l-9.9-1.7h-48l-46.5,6.2-56.2,14-41.4,19.1s-56.1,36-40.1,91.7Z" transform="translate(-27.4 -84)" style="fill:#630100"/><path d="M103,204.5s-.4-84.6,188.6-92L264,112l-29,2.7-31.2,5.1-28.5,7.5-28,10.9-20.6,12.9-16.1,19.2-7.4,17.9Z" transform="translate(-27.4 -84)" style="fill:#630100"/><path d="M180.2,227.5a38.3,38.3,0,0,1-15.5,4.7,23.9,23.9,0,0,1-8-.1,17.4,17.4,0,0,1-7.4-4.1,1,1,0,0,0-1.5.4.5.5,0,0,0-.1.7c1,2.2,3.9,3.8,6,4.7a19.4,19.4,0,0,0,8.9,1.4c6.7-.4,12.8-3.6,18.5-6.9C181.9,227.7,181.1,227,180.2,227.5Z" transform="translate(-27.4 -84)" style="fill:#630100"/><path d="M183.3,225.2a35,35,0,0,1-2.6,5.1.9.9,0,0,0-1.5-.6c-3.6,3.4-7.1,7.1-11.4,9.7s-9.3,5-14.1,4.4c-1.1-.2-1.7,1.5-.5,1.8a22.7,22.7,0,0,0,8.2.2h.5c10.3-1.8,18.9-10.5,22.3-20.4C184.4,224.8,183.5,224.6,183.3,225.2Z" transform="translate(-27.4 -84)" style="fill:#630100"/><path d="M151.2,188.6c-.1-1,0-2.2-.9-2.9s-.8.1-.6.5-.3,1.2-.4,2.1,0,.5-.1.9a32.9,32.9,0,0,1-2.6,4.9.5.5,0,0,0,.3.9l-2.6,1.2-.3-.3a14.6,14.6,0,0,0,4.4-9.6.9.9,0,0,0-1.6-.4c-.2.4-.3.2-.5.6s-.5-.2-.4-.6-.8.2-.8.2-.4,1.2-.7,1.3l-2.5.9c-2.9-.2-5.4,1-7.7,2.8h-.1l-.8.5c-.4.3-3.1.4-3,.8-5.2,1.6-7.5,5.4-11.6,9-.5.4-1.3,1.4-.8,1,3.2-2.5,8.1-4.9,11.8-6.6a25.7,25.7,0,0,1,5.9-2,12.1,12.1,0,0,1,3.8,0c.5.1,3.8,1,3.1,1.8s-.7.2-.6.3c-3.9,1.2-7.4,4.9-9.2,8.2s-2.9,9.2-.1,13.1a1.1,1.1,0,0,0-.7.6,24.6,24.6,0,0,1-1.7-2.7c-.3-.6-1.1-.2-1,.4a9.8,9.8,0,0,0,7.5,7.5c4.2.7,7.3-3.5,9.7-6.4.8-.9-.2-1.2-1-.3a9.2,9.2,0,0,1-9.4,2.8,7.2,7.2,0,0,1-1.9-1.1.9.9,0,0,0,.4-.9,25.6,25.6,0,0,1-1-3.4,9.1,9.1,0,0,1,.7-4.3,18.2,18.2,0,0,1,3.3-6.7c2.8-3.3,7-5.2,10.8-7.2a.4.4,0,0,0,.2-.6,6.3,6.3,0,0,0,1.9-.3c.4-.1.5-.3.5-.6A24.5,24.5,0,0,0,151.2,188.6Z" transform="translate(-27.4 -84)" style="fill:#630100"/><path d="M169.7,171.3a10.2,10.2,0,0,0-.3-3.5V167a.8.8,0,0,0-.8-.9,1.3,1.3,0,0,0-.9-.7h0a18,18,0,0,0-.8-3.9,1.1,1.1,0,0,0-1.4-.5c-.2-.4-.9-.3-1.1.1a5.7,5.7,0,0,0-1.3-.8,4.1,4.1,0,0,0-1.1-.7c-.1-.1-.3,0-.4.2a17,17,0,0,0-5.9-.2,37.3,37.3,0,0,0-10.3,2.7,67.6,67.6,0,0,0-9.3,4.7c-3,1.9-6.3,3.8-8.8,6.3-.2.2.1.5.3.4,3-1.6,5.7-3.6,8.5-5.3a69.8,69.8,0,0,1,9.1-4.5,40.1,40.1,0,0,1,9.6-2.6,19.3,19.3,0,0,1,4.8-.1,23,23,0,0,1,2.8.6,17.4,17.4,0,0,1,1.1,1.8,15.5,15.5,0,0,1,1.3,4.8,15,15,0,0,1,.2,2.2,88.6,88.6,0,0,1-.7,13.6h0a99,99,0,0,1-5.4,15.3c-.5,1.2,1.3.1,1.8-1.1s1.9-4,2.8-6.1a.3.3,0,0,0,.5,0c1-.8,1.4-2.6,1.7-3.8a8.4,8.4,0,0,0,.5-1.7,1,1,0,0,0,.5-.7,4.9,4.9,0,0,1,.1-1.2.8.8,0,0,0,1.2-.6,65.7,65.7,0,0,0,1.2-8.9.7.7,0,0,0,.2-.6.8.8,0,0,0,.5-.7A24.6,24.6,0,0,0,169.7,171.3Z" transform="translate(-27.4 -84)" style="fill:#630100"/><path d="M371.5,184.3a5,5,0,0,0-3.1-2.4.9.9,0,0,0-.9.2,19.5,19.5,0,0,0-3.5-1.9,65.1,65.1,0,0,0-7.8-2.7,37.2,37.2,0,0,0-7.5-1.7l-3.8-.2-1.6-.2a.9.9,0,0,0-.3-1.2,53.9,53.9,0,0,1-9.3-7,28,28,0,0,0-6.5-5.9c-.4-.3-.7.2-.4.5,2.3,3.1,5.1,5.8,7.5,8.9,1,1.3,1.8,3.2,3.1,4.3l.7.4a2.9,2.9,0,0,0,2.7,1.1,19.9,19.9,0,0,0,6.4,1,37.4,37.4,0,0,1,8.6,1.7,64.2,64.2,0,0,1,8,2.9c2.2,1.1,4.2,2.7,6.6,3.6S371.9,185,371.5,184.3Z" transform="translate(-27.4 -84)" style="fill:#630100"/><path d="M173.4,349.6c.9,4.3,3.9,7.8,7.4,10.4s7.5,4.3,11.3,6.3a102.1,102.1,0,0,1,28.3,21.4" transform="translate(-27.4 -84)" style="fill:#630100"/><path d="M156.6,372.3c.2-.6-.5-1-1-.8l-.3-.2h-.4l-.2-.3a.9.9,0,0,0-1.6.4c0,.3.1.5.1.7a1.5,1.5,0,0,0,.1.7.9.9,0,0,0,.6.8v.2a.9.9,0,0,0,.7.9v.2a.8.8,0,0,0,.2.4h0c0,.9,1.2.8,1.3,0a1.3,1.3,0,0,1,.1-.6,12.5,12.5,0,0,0,.3-1.9A.8.8,0,0,1,156.6,372.3Z" transform="translate(-27.4 -84)" style="fill:#630100"/><path d="M173.1,327h-.9c-.7-.1-1.1-.7-1.5-1.3a12.2,12.2,0,0,0-3.4-3,26.4,26.4,0,0,1-5.8-6.2c-.7-1.1-1.4-2.3-2.2-3.4l-2.9-4.3q-2.1-3.7-3.9-7.8a.9.9,0,0,0-1.5-.2c-.5-1.2-1.1-2.5-1.6-3.8a.8.8,0,0,0-.4-.4,89,89,0,0,1-2.4-9.9.6.6,0,0,0-.5-.6c-.4-2.3-.7-4.5-1-6.7-.1-.7,0-3.9-.5-3.5-.4-6.5-1.1-9.9-.4-16.3a.5.5,0,0,0-.9-.1,85.8,85.8,0,0,0,.6,34.6,93.1,93.1,0,0,0,5.2,16.8c1.9,4.5,5.1,7.1,8.6,10.6s5.1,3.2,7,5.4c4.5,5.1.5,13.4.5,13.4l3.6-4.5c.8-1.9,2-2.6,3.1-4.3l1.8-2.5c.4-.5,1.3-1.5.4-2a.9.9,0,0,0-.9-.1Zm-27.8-34.2a77.2,77.2,0,0,0,2,8.3c-.8-2.8-1.5-5.5-2.1-8.3Z" transform="translate(-27.4 -84)" style="fill:#630100"/><path d="M151.2,213.9s7.3-7.7,7.9-12.3c0,0,11-3.9,18.1-10,0,0-11.9,10.3-12.2,13.8C165,205.4,158.7,207.1,151.2,213.9Z" transform="translate(-27.4 -84)" style="fill:#630100"/></g><g id="Line"><path d="M245.3,391.5a23.8,23.8,0,0,0-3.4-4.3c-1.3-1.2-2.6-2.3-3.8-3.6l-1-1-.5-.6-.4-.4c-.7-.7-1.3-1.5-1.9-2.2s-2.3-3-3.4-4.6A47.1,47.1,0,0,1,228,370a48.1,48.1,0,0,1-2.5-5.1c-1.5-3.4-2.7-7.1-4-10.7a58.3,58.3,0,0,0-4.6-11,29.6,29.6,0,0,0-3.5-5.2l-1-1.2-1.1-1.1-1.1-1.1-1.2-1a37.4,37.4,0,0,0-5.3-3.5,41.7,41.7,0,0,0-5.8-2.4,44,44,0,0,0-6.3-1.3,34.2,34.2,0,0,0-6.4,0l.8,6.4a27.7,27.7,0,0,1,27.1,12.6,78.7,78.7,0,0,1,4.9,10.1c1.4,3.6,2.8,7.2,4.6,10.8.9,1.7,1.9,3.4,2.9,5.1s2.2,3.3,3.4,4.9,2.7,3.4,4.1,4.9a62.9,62.9,0,0,0,4.7,4.3c2.2,1.9,4.3,4,5.3,6.7a10.7,10.7,0,0,1-1.1,9.8,11,11,0,0,1-8.8,4.5c-4.5-.1-7.7-3.1-11.4-5.1a65.2,65.2,0,0,0-9.3-4.3l-4.4-1.4a69.4,69.4,0,0,0-13.6-2.5c-4.5-.5-9-.8-13.4-1.5a48,48,0,0,1-6.3-1.5,29.9,29.9,0,0,1-5.8-2.5,36.8,36.8,0,0,1-16.3-18.8l-.9-2.4a3.3,3.3,0,0,1-2.7-.2,27.4,27.4,0,0,0-4-1.5,48.3,48.3,0,0,0,2.2,6.4,43.6,43.6,0,0,0,19.6,20.5,39.4,39.4,0,0,0,6.8,2.5,55.8,55.8,0,0,0,6.9,1.3c4.6.5,9.2.5,13.7.8a65.5,65.5,0,0,1,13.2,1.8,64.5,64.5,0,0,1,17.3,6.9c1.5.8,2.9,1.9,4.4,2.8a12.2,12.2,0,0,0,5.4,1.2c3.8.1,7.6-3,9.6-6a12.7,12.7,0,0,0,2.3-8.2A10.7,10.7,0,0,0,245.3,391.5Z" transform="translate(-27.4 -84)" style="fill:#540000"/><path d="M339.4,175h-6.2l1.6.2,4.6.3,4,.4-.8-.7Z" transform="translate(-27.4 -84)" style="fill:#540000"/><path d="M346.7,175.3l-4.1-.2.8.7,3.2.4a48,48,0,0,1,4.8.8,9.3,9.3,0,0,0-1.4-1.4Z" transform="translate(-27.4 -84)" style="fill:#540000"/><path d="M181.9,226.7l-1.3.9a32.5,32.5,0,0,1-4,2.2,36.6,36.6,0,0,1-6.4,2.2,43.1,43.1,0,0,1-8.3.9l-4.3-.4-4-.8a18.6,18.6,0,0,1-6.3-3.2,10.9,10.9,0,0,1-3-3.5c-.1-.3-.3-.5-.3-.7l-.2-.4-.2-.4.3.3.4.4.5.4a11.7,11.7,0,0,0,3.5,2.3,22.7,22.7,0,0,0,6,1.6,20.2,20.2,0,0,0,3.6.3l4,.2c2.8,0,5.4-.1,7.7-.3l6.4-.8,4.3-.8Z" transform="translate(-27.4 -84)" style="fill:#540000;fill-rule:evenodd"/><path d="M180.4,330.1l-.5-.4-.8-.7-2.8-2.4-.6-.6-1.9-1.8h0c-1.2-1-2.2-2.2-3.3-3.3l-1.5-1.6-1.2-1.4-1.1-1.2-.4-.5-.6-.7-2.1-2.6-.4-.5-.6-.7h0l-2-2.7-.4-.6-.4-.7-.4-.6-.5-.7-.5-.8a16.2,16.2,0,0,1-1-1.8h-.1a82.2,82.2,0,0,1-8.8-22.4,61.9,61.9,0,0,1-1.2-21.7q.3-1.8.6-3.3l-3.7-3.1v.5a52.9,52.9,0,0,0-1,5.4,65.6,65.6,0,0,0,1.2,23.2,84.1,84.1,0,0,0,9.3,23.5l1.2,1.9.5.9h0a3.5,3.5,0,0,1,.5.8,2.1,2.1,0,0,1,.4.6l.4.6.6.8c.6.9,1.3,1.7,1.9,2.7l.8,1,.3.4,2.1,2.7h0l.8.8.4.6a5.2,5.2,0,0,1,1,1.1l1.3,1.5h.1l1.5,1.7a45,45,0,0,1,3.4,3.8l1.9,1.8,3.5,2.8,1,.8.5.4,2.9,2.4.9.7.6.5.6.4c0-1.4,0-2.8-.1-4.2a4.9,4.9,0,0,1,.1-1.2Z" transform="translate(-27.4 -84)" style="fill:#540000"/><path d="M93.1,217.3c-.3.7-.7,1.3-1,2.1l-1.3,2.8h0c-.8,1.9-1.6,3.8-2.3,5.8s-1.2,3.5-1.7,5.1l-.3.8c-.2.9-.5,1.8-.7,2.7l-.2.8-.3,1.1-.3,1.4a106.7,106.7,0,0,0-2.1,12.2,114.3,114.3,0,0,0,.1,24.1c.4,3.5,1.1,7.3,2,11.6s1.9,7.3,3.1,11.2a120.6,120.6,0,0,0,22.2,39.3c1.1,1.4,2.2,2.6,3.4,3.9l.3.3,1.4,1.5,1.5,1.6,1,.9,4,3.7,1.5,1.3.6.6,4,3.4h.1l1.5,1.1.6.5,1,.7c1.1.8,2.2,1.7,3.3,2.4h.1l1.3.9c2.4,1.6,4.9,3.2,7.5,4.7l1.1.6.3-.4,2.1-2a4.6,4.6,0,0,1,.7-.7l-2.1-1.2c-2.4-1.4-4.8-3-7.2-4.6l-1.4-.9-3.1-2.3-1-.7-.7-.5-1.3-1.1-4.1-3.3-.6-.5-1.3-1.2h0l-3.9-3.6-1-.9-1.4-1.5-1.3-1.4-.4-.4c-1.1-1.2-2.2-2.4-3.2-3.7a113.6,113.6,0,0,1-21.4-38c-1.2-3.7-2.2-7.3-3-10.7s-1.5-7.8-1.9-11.2a105,105,0,0,1,1.8-34.8l.4-1.5a2.9,2.9,0,0,1,.2-.9c0-.2.1-.3.1-.5v-.3l.7-2.5.2-.8c.6-1.7,1.1-3.3,1.7-4.9h0c.7-1.9,1.4-3.8,2.2-5.6l.6-1.4c-.7-1.8-1.4-3.7-2-5.7Z" transform="translate(-27.4 -84)" style="fill:#540000"/><path d="M93.3,216.8c.6,2,1.3,3.9,2,5.7l.7-1.3.9-2,.4-.7.9-1.6c-.7-1.9-1.2-3.9-1.7-5.8a58.6,58.6,0,0,0-3,5.5Z" transform="translate(-27.4 -84)" style="fill:#540000"/><polygon points="351.9 147.6 351.9 147.6 351.9 147.6 351.9 147.6 351.9 147.6 351.9 147.6" style="fill:#540000"/><path d="M389.8,261.3V258a12.1,12.1,0,0,0-.1-1.9l-2.4,1.6-2.2,1.5-1,.8v9.2a7.6,7.6,0,0,1-.1,1.5c0,1.1-.1,2.1-.2,3.2v1.4a7.8,7.8,0,0,0-.2,1.6c-.2,1-.3,2.1-.4,3.1l-.3,1.5-.2,1.5-.6,3a99.6,99.6,0,0,1-3.2,11.9c-.3.9-.6,1.9-1,2.9l-.5,1.4-.5,1.4-1.2,2.8-.6,1.4v.4l-.2.3-.3.7c-.9,1.8-1.7,3.7-2.7,5.4l-.7,1.3-.8,1.4-.3.7c-.1.1-.2.2-.2.3l-.2.2-.8,1.3c-.5.8-1,1.7-1.6,2.5l-.8,1.3-.9,1.2a22,22,0,0,1-1.7,2.5l-1.8,2.3-.9,1.2-1,1.1-1.9,2.3c-1.3,1.5-2.7,2.9-4,4.3a110.1,110.1,0,0,1-8.8,7.9c-3,2.4-6.2,4.7-9.4,6.8s-6.7,3.9-10.1,5.6c-1.7.9-3.5,1.7-5.2,2.4l-5.3,2.1-5.4,1.7-2.7.8-1.4.3-1.3.4-2.8.6-1.3.2-.7.2h-.7l-2.7.4-2.8.4-2.8.3h-2.7l-5.6.3c-7.3.2-14.6-.1-21.9-.6s-14.5-1.1-21.6-1.4c-4.7-.2-9.5-.3-14.1-.2.8,1.4,1.6,2.9,2.5,4.3l11.4.3c14,.9,28.6,2.8,43.9,2.5l5.7-.2,1.4-.2H291l2.9-.3,2.9-.3,2.8-.4h.8l.7-.2,1.5-.3,2.8-.6,1.5-.3,1.4-.4,2.9-.8a52.2,52.2,0,0,0,5.6-1.8,53.7,53.7,0,0,0,5.6-2.1l5.5-2.5a109,109,0,0,0,10.6-5.8,100.4,100.4,0,0,0,10-7.1,101.7,101.7,0,0,0,9.2-8.2l4.3-4.5,2.1-2.4,1-1.2.9-1.2a25.6,25.6,0,0,0,2-2.6l1.8-2.5.9-1.2.9-1.4,1.7-2.6.8-1.4.3-.4.2-.3.4-.7.7-1.3c.3-.5.5-1,.8-1.4,1-1.9,1.9-3.8,2.8-5.7l.4-.7.2-.4v-.4l.6-1.4c.4-1,.8-2,1.3-3l.6-1.5.5-1.5,1-3a110.1,110.1,0,0,0,3.4-12.5l.6-3.2.3-1.6.3-1.6c.1-1.1.2-2.1.4-3.2s.1-1.1.2-1.6v-1.7l.3-3.2c0-.6.1-1.1.1-1.6v-1.7c0-1,0-2.1.1-3.2v-3.3Z" transform="translate(-27.4 -84)" style="fill:#540000"/><path d="M341,281.8l-.4.2a9.1,9.1,0,0,1-1.7.8,21.9,21.9,0,0,1-.3,3.6l-.3,2.7-.3,1.4v.6a1.3,1.3,0,0,1-.1.6l-.6,2.7v.3a.4.4,0,0,0-.1.3l-.2.7-.4,1.3a18.3,18.3,0,0,1-.8,2.5,5.8,5.8,0,0,1-.5,1.4,1.1,1.1,0,0,1-.2.6c0,.2-.1.3-.2.5s-.7,1.7-1,2.6l-.6,1.2-.6,1.3-.3.6-.2.5-.7,1.2-.3.6-.4.6-.6,1.1a68.9,68.9,0,0,1-13.7,16.2,82.5,82.5,0,0,1-8.4,6.2,40.4,40.4,0,0,1-4.5,2.6l-4.6,2.3a80.2,80.2,0,0,1-19.7,5.5,202.1,202.1,0,0,1-20.3,2c-6.8.4-13.5.6-20.2,1.1a160.6,160.6,0,0,0-21,2.4c.5,1.3,1,2.7,1.4,4h.6c6.3-1,12.7-1.5,19.3-1.9l20.1-.8c6.8-.3,13.8-.8,20.8-1.8,3.5-.6,7.1-1.3,10.6-2.2l5.2-1.5,2.7-1,2.5-1.1,5-2.3,4.9-2.8a80.7,80.7,0,0,0,9-6.7,68,68,0,0,0,8.1-8,79.3,79.3,0,0,0,6.8-9.3l.7-1.2.4-.7.3-.6.7-1.2a5.9,5.9,0,0,0,.4-.8l.3-.6.6-1.3.6-1.3a20.3,20.3,0,0,0,1.1-2.6,5.9,5.9,0,0,0,.4-.8,6.4,6.4,0,0,1,.2-.7l.5-1.3.9-2.9.4-1.3.2-.7c0-.1.1-.3.1-.4v-.4l.6-2.8c.1-.3.1-.6.2-.8v-.8l.2-1.4a28.9,28.9,0,0,0,.4-2.9,58.2,58.2,0,0,0,.5-6v-.2Z" transform="translate(-27.4 -84)" style="fill:#540000"/><path d="M67.4,320.8c-.1-.5-.2-.5-.1,0A211,211,0,0,1,69.4,365l4.4,5.1C72.5,353.5,70.3,337,67.4,320.8Z" transform="translate(-27.4 -84)" style="fill:#540000"/><path d="M93,358.4c0-.3-.1-.3-.1,0a61.1,61.1,0,0,1-5.3,23.5l3.3,2.2A125,125,0,0,0,93,358.4Z" transform="translate(-27.4 -84)" style="fill:#540000"/><path d="M65.1,367.9a70.9,70.9,0,0,1-16.8-5.7,69.4,69.4,0,0,1-20.6-15.1c-.3-.3-.4-.3-.1,0a90.1,90.1,0,0,0,19.9,16.5,91.5,91.5,0,0,0,21.6,9.7c-.8-.9-1.5-1.9-2.3-2.9Z" transform="translate(-27.4 -84)" style="fill:#540000"/><path d="M83,387.3A42,42,0,0,1,55.7,392c-.3-.1-.5.8-.2.8A44.2,44.2,0,0,0,87,390.4l-1-.7Z" transform="translate(-27.4 -84)" style="fill:#540000"/><path d="M166.2,389.3l-3,1.7a98,98,0,0,1-16.1,7.6l-4.1,1.3-4.2,1h-1l-1.1.2-2,.3-4.2.4c-1.4,0-2.7.1-4.1,0l-4.1-.2-4-.5-3.9-.8a59.2,59.2,0,0,1-7.5-2.2,62.2,62.2,0,0,1-7.1-2.9,80.1,80.1,0,0,1-10.7-6.1L85.9,387l-.6-.4c-.1-.2-.3-.3-.4-.4a82,82,0,0,1-8.2-7.1,61.7,61.7,0,0,1-5-5.3l-1.5-1.7L69,370.5l-1.7-2.2c-2.2-2.9-4.2-5.9-6-8.7l-.7-1.3-.8-1.2c-.4-.8-.9-1.6-1.4-2.4L55.9,350c-.8-1.6-1.6-3.1-2.3-4.6l-1.1-2.2-.5-1.1-.5-1.1c-2.6-5.8-4.6-11-6.3-15.6L41,313.8q-1.5-4.8-2.4-7.2c-.5-1.7-.8-2.5-.8-2.5l.7,2.5c.6,1.6,1.3,4,2.3,7.2s2.3,7.2,3.9,11.8,3.5,9.9,6,15.7l.4,1.1.5,1.1,1.1,2.3c.7,1.5,1.4,3.1,2.2,4.7s1.6,3.2,2.5,4.8.9,1.6,1.3,2.5l.7,1.2.8,1.3c1.5,2.5,3.1,5,4.9,7.6l1.7,2.5c.8,1,1.5,2,2.3,2.9a82.2,82.2,0,0,0,6.3,7.1,84.3,84.3,0,0,0,7.6,6.9l3,2.4,1,.7a86.3,86.3,0,0,0,11.8,7.2c2.3,1.1,4.8,2.2,7.3,3.1s5,1.7,7.7,2.4l4.1.8a28.3,28.3,0,0,0,4.2.6,29.7,29.7,0,0,0,4.2.3h4.3l4.4-.4,2.2-.2,1.1-.2h1.1l4.4-1,4.3-1.3a97.3,97.3,0,0,0,16.8-7.6l5.6-3.2A21.9,21.9,0,0,1,166.2,389.3Z" transform="translate(-27.4 -84)" style="fill:#540000"/><path d="M156.8,382.1l-2,1.3a76,76,0,0,1-14.3,7.6l-.9.3-.9.4-1.9.5-1.9.6-.9.2h-1a38.2,38.2,0,0,1-7.5.8,24.1,24.1,0,0,1-3.8,0l-3.7-.2a54,54,0,0,1-7.2-1.3l-3.5-1-3.4-1.1c-2.2-.8-4.3-1.7-6.4-2.7a69.5,69.5,0,0,1-6.6-3.6l-3.3-2.2-1.7-1.2a77.7,77.7,0,0,1-9.7-8.2l-2.4-2.4L69.4,365l-1.2-1.5L64.8,359l-1.5-2.3-1.5-2.3a17.6,17.6,0,0,1-1.4-2.3L59,349.9l-2.5-4.4-2.3-4.3c-.7-1.4-1.4-2.8-2-4.2l-1.9-4-1.7-3.8c-2.1-5-3.9-9.5-5.4-13.4l-3.7-10-1.3-3.5-.8-1.3h-.2a.3.3,0,0,0-.1.2v.3c0,.2.1.4.1.6a12.3,12.3,0,0,0,.4,1.6l.2.5-.2-.5a15.7,15.7,0,0,1-.3-1.6,1.3,1.3,0,0,1-.1-.6v-.3c0-.1,0-.1.1-.1h.1l.7,1.3c.4,1,.7,2.2,1.2,3.5s2.1,6.1,3.5,10,3,8.5,5.1,13.6l1.6,3.9,1.8,4c.6,1.4,1.3,2.8,2,4.3s1.4,2.9,2.2,4.3A118.3,118.3,0,0,0,67,364.5l2.2,2.9,1.1,1.3a20,20,0,0,0,1.9,2.2l1,1.2,1.7,1.7a82.6,82.6,0,0,0,9.8,8.6l2,1.5.8.5.9.6,2.1,1.4a57.6,57.6,0,0,0,6,3.3,66.2,66.2,0,0,0,6.6,3l3.5,1.2,3.6,1.1a58.6,58.6,0,0,0,7.5,1.4l3.9.4h3.9c1.4-.1,2.7-.1,4-.3l4.1-.5h1l1-.3,2-.5,2-.5,1-.4.9-.3a74.1,74.1,0,0,0,15.1-7.7l2.8-1.9Z" transform="translate(-27.4 -84)" style="fill:#540000"/><path d="M70.2,342.2v-.6l-.6-.3-1.2-.5a12.8,12.8,0,0,1-2.4-1.1l-1.2-.6-1.3-.7a47.8,47.8,0,0,1-5-3.3,59.3,59.3,0,0,1-5.1-4c-2.6-2.4-5-4.9-7.2-7.3a44,44,0,0,1,2.1,5c1.2,1.3,2.5,2.5,3.8,3.7a63.1,63.1,0,0,0,5.3,4.1,43.9,43.9,0,0,0,5.3,3.2l1.4.7,1.3.6,2.5,1,1.2.4,1.2.4h.1A6.4,6.4,0,0,1,70.2,342.2Z" transform="translate(-27.4 -84)" style="fill:#540000;fill-rule:evenodd"/><path d="M89.1,364.8a57.2,57.2,0,0,1-8.3-7,62.2,62.2,0,0,1-6.7-8.5,37.7,37.7,0,0,1-2.5-4.1c-.4-.9-.9-1.8-1.2-2.6l.3,2.9a.8.8,0,0,1-.1.7,37.2,37.2,0,0,0,2.1,3.9,45.3,45.3,0,0,0,6.8,9,46,46,0,0,0,8.7,7.1,33.2,33.2,0,0,0,4.1,2.2,7.6,7.6,0,0,1,.1-1.5A30.2,30.2,0,0,1,89.1,364.8Z" transform="translate(-27.4 -84)" style="fill:#540000;fill-rule:evenodd"/><path d="M111.9,394.4l-.7-.7-.8-.8-1.9-2-1.1-1.2-1.1-1.3-2.5-3c-1.6-2.1-3.4-4.5-5-7.1s-3.1-5.3-4.3-7.7a35.2,35.2,0,0,1-1.6-3.5h-.1v2.3a1.3,1.3,0,0,1-.3.8l.5,1.2a76.1,76.1,0,0,0,4.1,8,61.7,61.7,0,0,0,5.5,7.2,36.3,36.3,0,0,0,2.7,2.8l1.3,1.2,1.2,1.1,2.2,1.8.9.7.8.5,1.5,1Z" transform="translate(-27.4 -84)" style="fill:#540000;fill-rule:evenodd"/><path d="M98.6,396.3c-.2,0-.3-.2-.4-.4-4.4-.6-10.2-1.5-16.7-2.2l-6.3-.6a1.6,1.6,0,0,1-1.2.6H72.6a3.4,3.4,0,0,1-2.2.4h-.2l11.1,1.4c7.8.8,14.8,1.2,19.3,1.4Z" transform="translate(-27.4 -84)" style="fill:#540000;fill-rule:evenodd"/><path d="M61.9,393.1l-.3-1.3c-.2-.9-.4-2-.7-3.1s-.3-1.2-.4-1.8l-.6-1.9c-.4-1.4-1-2.7-1.5-4.2a76.2,76.2,0,0,0-4.4-9.2,87.2,87.2,0,0,0-5.8-8.4l-.8-.9a8.3,8.3,0,0,1-2.2-.3l1.7,2.2c1.7,2.5,3.6,5.3,5.4,8.4a93.8,93.8,0,0,1,4.6,8.8l1.7,4c.3.7.5,1.3.8,1.9L60,389l1,3,.5,1.2v.3H62Z" transform="translate(-27.4 -84)" style="fill:#540000;fill-rule:evenodd"/><path d="M46.9,330.7c-.6-1.3-1.1-2.6-1.6-3.9a18,18,0,0,0-.8-2.1c.1.8.1,1.6.2,2.4.5,4.1.8,8.7,1,13.4s.3,9.3.2,13.5c0,2,0,4-.1,5.8a9.2,9.2,0,0,0-.1,1.6,2.8,2.8,0,0,1,1.2.4c.1-.6.1-1.2.2-1.9s.3-3.8.5-5.9c.2-4.1.3-8.7.1-13.6C47.5,337.1,47.2,333.8,46.9,330.7Z" transform="translate(-27.4 -84)" style="fill:#540000;fill-rule:evenodd"/><path d="M172.7,381.5a3.5,3.5,0,0,1,.1-.6v-.2a18.1,18.1,0,0,1-3.3-2.6,16.1,16.1,0,0,1-4-5.9l-.4-1.1a3.1,3.1,0,0,1-.2-.8l-.2-.7v.7a3.1,3.1,0,0,0,.1.9l.2,1.1a7.8,7.8,0,0,0,.5,1.4l.3.8a3.6,3.6,0,0,0,.4.9l.5.8a4.1,4.1,0,0,0,.5.9l.3.5.4.4.3.5.4.4a21.6,21.6,0,0,0,3.8,3.5C172.6,382.1,172.7,381.7,172.7,381.5Z" transform="translate(-27.4 -84)" style="fill:#540000"/><path d="M221.2,394l-.6-.6-.8-.8a4.7,4.7,0,0,0-1-1l-.7-.5-.7-.6a28.7,28.7,0,0,0-3.6-2.1,32.3,32.3,0,0,0-10.3-2.7c-4-.5-8.3-.5-12.8-.7a45.1,45.1,0,0,1-6.5-.5,25.9,25.9,0,0,1-5.8-1.2,23.7,23.7,0,0,1-5.3-2.5h0a1.3,1.3,0,0,0,.1.6,4.8,4.8,0,0,0,.4,1.5,27.8,27.8,0,0,0,4.2,2.2c3.8,1.5,8.3,2,12.9,2.2h1.2l5.7-.5,5.3-.2-2.4.8,2.9.2a39.7,39.7,0,0,1,10,1.8,20.2,20.2,0,0,1,3.6,1.7l.8.4.7.4,1.1.8.9.7a1.7,1.7,0,0,0,.6.6l.5.5Z" transform="translate(-27.4 -84)" style="fill:#540000"/><path d="M185.2,388.1a18.4,18.4,0,0,1-6.4-.6l-1.3-.5-1.1-.7a9.3,9.3,0,0,1-1.8-1.6,9.5,9.5,0,0,1-1-1.7l-1-.6a10.9,10.9,0,0,0,.8,3.1,9.1,9.1,0,0,0,1.7,2.3,6.9,6.9,0,0,0,1.3,1.1l1.5.9a16.5,16.5,0,0,0,7.4,1.2,42.3,42.3,0,0,0,7-1.2l5.6-1.5,2.6-.8h-8.9A62.7,62.7,0,0,1,185.2,388.1Z" transform="translate(-27.4 -84)" style="fill:#540000"/><path d="M173.2,381.5a1.3,1.3,0,0,1-.1-.6h-.2v.2a3.5,3.5,0,0,0-.1.6c0,.2-.1.6-.1.9l1,.6A4.8,4.8,0,0,1,173.2,381.5Z" transform="translate(-27.4 -84)" style="fill:#540000"/><path d="M197.6,386.9l-5.7.5h8.6l2.4-.8Z" transform="translate(-27.4 -84)" style="fill:#540000"/><path d="M228.6,385.7l-.7-.3-.8-.6-1.1-.7c-.1-.2-.3-.3-.5-.5l-.6-.5-2.5-2.8a50.1,50.1,0,0,1-5-8.8l-1.9-4.8c.1-1.3.1-2.9.1-4.6a48.5,48.5,0,0,0-.7-7.1,15.6,15.6,0,0,0-3-6.8l-1.2-1.3a11,11,0,0,0-1.4-.9,7.7,7.7,0,0,0-2.7-1.1,6,6,0,0,0-3.3.1,16.2,16.2,0,0,0-4.6-2.8h-.5l-.4-.2h-1l-.8-.2h-3.5l-1,.3-.7.2-.5.2h2.2a11.2,11.2,0,0,1,5.8,1.4,18.5,18.5,0,0,1,3.4,2.3l.2.2a21.6,21.6,0,0,1,3.5,3.8,44,44,0,0,1,3,5c.9,1.8,1.8,3.8,2.6,5.9s2.1,5.4,3.2,7.9a22.1,22.1,0,0,0,1.2,2.7l.6,1.3a33.6,33.6,0,0,0,5.7,8.7,32,32,0,0,0,2.8,2.6l.7.4.6.4,1.1.6.9.5.7.2.6.2Zm-22-37.5a28.9,28.9,0,0,0-2.4-2.5l2,.6a9.6,9.6,0,0,1,2,1.3l.9.9.8,1.1a20.2,20.2,0,0,1,2.2,6l.6,3.6A46.2,46.2,0,0,0,206.6,348.2Z" transform="translate(-27.4 -84)" style="fill:#540000"/><path d="M246.8,132.8a153.9,153.9,0,0,1,17.8,2,159.6,159.6,0,0,1,78,40.3l4.1.2,3.3.3a164.3,164.3,0,0,0-85-42.8l-7.9-1.3-4.6.5Z" transform="translate(-27.4 -84)" style="fill:#540000"/><path d="M234.3,132.6c4.2-.1,8.3,0,12.5.2l5.7-.8,4.6-.5c-3.2-.5-6.5-.9-9.7-1.2S238.6,131.7,234.3,132.6Z" transform="translate(-27.4 -84)" style="fill:#540000"/><path d="M234.3,132.6A182.1,182.1,0,0,0,199.2,144l-3.2,1.4-1.5.8-1.6.7-6.1,3.2a97,97,0,0,0-11.8,7.4,61.2,61.2,0,0,0-4.9,4,10.5,10.5,0,0,1,1.5,3,.4.4,0,0,1,.1.3,58.5,58.5,0,0,1,5.4-4.5,94.8,94.8,0,0,1,11.3-7.3,57,57,0,0,1,6-3.2l1.5-.8,1.5-.7,3.1-1.5a180.9,180.9,0,0,1,46.3-14C242.6,132.6,238.5,132.5,234.3,132.6Z" transform="translate(-27.4 -84)" style="fill:#540000"/><path d="M168.1,159.3a12.4,12.4,0,0,0-2.7-1.7,11.1,11.1,0,0,0-3-.8,18.3,18.3,0,0,0-5.7-.1,38.1,38.1,0,0,0-5.1,1.2l-2.4.8-2.2.8a69.5,69.5,0,0,0-8.2,3.9,73.3,73.3,0,0,0-6.5,4.3,56.6,56.6,0,0,0-8.4,7.6l-1.2,1.3-.8,1-.7.8.8-.7,1-.9,1.3-1.1a81.6,81.6,0,0,1,9.1-6.4c1.9-1.1,4.2-2.4,6.6-3.5a59.4,59.4,0,0,1,8.1-3.2l2.2-.7,2.2-.6a38.9,38.9,0,0,1,4.7-.9,13.5,13.5,0,0,1,4.5.1l2.1.7a5.4,5.4,0,0,1,1.8,1.1,6.9,6.9,0,0,1,1.6,1.8l2.9-2.6A13.7,13.7,0,0,0,168.1,159.3Z" transform="translate(-27.4 -84)" style="fill:#540000"/><path d="M168.6,167.8a21.7,21.7,0,0,1,.4,2.5,35.1,35.1,0,0,1-.7,9.2,44.2,44.2,0,0,1-2.8,8,59.5,59.5,0,0,1-3.5,6.7c-2.4,4-4.7,7.1-6.2,9.3l-2.3,3.3,2.8-3a101.6,101.6,0,0,0,7.3-8.5,63.1,63.1,0,0,0,4.3-6.6,46.1,46.1,0,0,0,3.5-8.4,30.7,30.7,0,0,0,1.3-10.2,19.1,19.1,0,0,0-1-5.3Z" transform="translate(-27.4 -84)" style="fill:#540000"/><path d="M170.1,161.5l-2.9,2.6a8.9,8.9,0,0,1,.8,1.7,7.6,7.6,0,0,1,.6,2l3.1-3a.4.4,0,0,0-.1-.3A10.5,10.5,0,0,0,170.1,161.5Z" transform="translate(-27.4 -84)" style="fill:#540000"/><path d="M185,223l-.7.7a3,3,0,0,1-.8.8,19.9,19.9,0,0,1-2.1,1.9l-1.2,1.1-1.4,1.1-3,2.4-7.3,5c-2.7,1.6-5.3,3-7.7,4.2l-3.5,1.7-1.6.7-1.5.6-1.2.4h0c.2.1.2.2.2.4a5.9,5.9,0,0,1-.2,1.3l1.7-.3,1.6-.2,1.8-.4,4-1.2a41.9,41.9,0,0,0,8.4-3.9,50.1,50.1,0,0,0,7.4-5.8,38.4,38.4,0,0,0,2.8-3,13.4,13.4,0,0,0,1.1-1.4l1-1.4a14.3,14.3,0,0,0,1.6-2.4l.7-1,.4-.9.9-1.6Z" transform="translate(-27.4 -84)" style="fill:#540000;fill-rule:evenodd"/><path d="M150.7,181.7a11.1,11.1,0,0,0-.2-1.9c0-.3-.1-.5-.1-.8v-.6l-.3-1.2a10.9,10.9,0,0,1-.1,1.2v.7a1.7,1.7,0,0,0-.1.7l-.3,1.9-.2,1.1h0l1.4-.6Z" transform="translate(-27.4 -84)" style="fill:#540000"/><path d="M148.9,184.6v.6l-.4,1.3a36,36,0,0,1-2.2,5.6l-1.5,2.7,2.7-.2.9-1.7a22.8,22.8,0,0,0,2-6.1l.3-1.4v-.3a.4.4,0,0,1,.1-.3v-.7c0-.4.1-.7.1-1l-1.7,1Z" transform="translate(-27.4 -84)" style="fill:#540000"/><path d="M150.7,182.2l-1.4.6L149,184h0l1.7-1v-.9Z" transform="translate(-27.4 -84)" style="fill:#540000"/><path d="M149.4,195l2.2-.6h-2.3l-2,.2-.9,1.3Z" transform="translate(-27.4 -84)" style="fill:#540000"/><path d="M146.3,215.4l-3,1.5a15.1,15.1,0,0,1-3.8.8,7.7,7.7,0,0,1-4-.7,6.6,6.6,0,0,1-1.7-1.2,8.1,8.1,0,0,1-1.2-1.8,8.9,8.9,0,0,1-1-4.6,5,5,0,0,1,.2-1.2,1.3,1.3,0,0,1,.1-.6v-.5a9.1,9.1,0,0,1,1.1-2.2,15.7,15.7,0,0,1,3-3.7,23.6,23.6,0,0,1,7.1-4.1,17.6,17.6,0,0,0,1.4-2.3l-1.5.3a27.2,27.2,0,0,0-4.3,1.1l-2.3,1-2.4,1.4a17.2,17.2,0,0,0-4.2,4.3,15.9,15.9,0,0,0-1.5,2.9l-.2.8a2.9,2.9,0,0,0-.2.9,9.9,9.9,0,0,0-.2,1.7,10.7,10.7,0,0,0,1.6,6.6,8.6,8.6,0,0,0,2.1,2.6,10.7,10.7,0,0,0,2.7,1.6,10.2,10.2,0,0,0,5.7.3,13.8,13.8,0,0,0,4.3-1.7,17.3,17.3,0,0,0,2.9-2.3l1.9-1.9,1.5-1.7-1.9,1.3Z" transform="translate(-27.4 -84)" style="fill:#540000"/><path d="M143.6,196.9l2.8-1,.9-1.3-2.7.2a17.6,17.6,0,0,1-1.4,2.3Z" transform="translate(-27.4 -84)" style="fill:#540000"/><path d="M191.3,338.5,168.7,280c-.2-.6-2,0-1.9.6l14.5,60.9a16.4,16.4,0,0,0,4.7-.6A17.5,17.5,0,0,0,191.3,338.5Z" transform="translate(-27.4 -84)"/><path d="M180,341.5l-1.9-.3h-.8l.6.4a14.8,14.8,0,0,0,1.8.9l1.9.5-.3-1.4Z" transform="translate(-27.4 -84)" style="fill:#540000"/><path d="M193.2,337.4l.4-.6-.6.4-1.5,1.2h-.2l.5,1.1.3-.5A4.8,4.8,0,0,0,193.2,337.4Z" transform="translate(-27.4 -84)" style="fill:#540000"/><path d="M186,340.9a16.4,16.4,0,0,1-4.7.6l.3,1.4,1.1.2a12.5,12.5,0,0,0,3.8-.3,12,12,0,0,0,5.3-3.2l-.5-1.1A17.5,17.5,0,0,1,186,340.9Z" transform="translate(-27.4 -84)" style="fill:#540000"/><path d="M156.5,371.5c.1-.4.1-.9.2-1.3a25.8,25.8,0,0,0,.3-2.9c.1-1.1.1-2.1.1-3a5.7,5.7,0,0,1-.1-1.3c0-.4-.1-.7-.1-1.1a226.5,226.5,0,0,1-67.6-30.2c-.6-.4-1.7,1.1-1.1,1.5a232.1,232.1,0,0,0,68,39.5h0Z" transform="translate(-27.4 -84)"/><path d="M157.8,361.6a4.1,4.1,0,0,1-.5-.9,2.1,2.1,0,0,1-.4-.6l-.4-.5v.6c0,.2.1.4.1.7s.1.6.2,1h0l1.2.3Z" transform="translate(-27.4 -84)" style="fill:#540000"/><path d="M156,373.5l-.3.7-.2.6.5-.4.5-.6.6-.8-.9-.3A3.1,3.1,0,0,0,156,373.5Z" transform="translate(-27.4 -84)" style="fill:#540000"/><path d="M157.7,371.9l.6-1.3a15,15,0,0,0,.7-3.2,16.9,16.9,0,0,0-.3-3.3c-.1-.5-.3-.9-.4-1.4a.8.8,0,0,1-.2-.5l-1.2-.3c0,.4.1.7.1,1.1a5.7,5.7,0,0,0,.1,1.3c0,.9,0,1.9-.1,3a25.8,25.8,0,0,1-.3,2.9c-.1.4-.1.9-.2,1.3l-.3,1.1h0l.9.3h0Z" transform="translate(-27.4 -84)" style="fill:#540000"/><path d="M231.7,387.8v-.2a3,3,0,0,1-.1-1.6v-.5h0l-.2.4a4.2,4.2,0,0,0-.2,1.7v.3h.5Z" transform="translate(-27.4 -84)" style="fill:#540000"/><path d="M241.5,392.7a8.3,8.3,0,0,1-1.6,0H239v.6h.9l1.7-.3.6-.2Z" transform="translate(-27.4 -84)" style="fill:#540000"/><path d="M238.4,392.6a8.8,8.8,0,0,1-3.6-1.1,6.7,6.7,0,0,1-2.2-1.8,6.1,6.1,0,0,1-.7-1.4h-.7a7.1,7.1,0,0,0,.8,1.8,6.3,6.3,0,0,0,2.3,2.3,9.1,9.1,0,0,0,3.1.9h1.3c-.1-.1-.1-.3-.2-.4Z" transform="translate(-27.4 -84)" style="fill:#540000"/><path d="M231.6,401.6a2.1,2.1,0,0,1,.4.6,8.2,8.2,0,0,1,.6,1.6.6.6,0,0,1,.1.4v-.5c-.1-.4-.2-1-.4-1.7s-.1-.4-.2-.6l-.5.2Z" transform="translate(-27.4 -84)" style="fill:#540000"/><path d="M224,397a10.6,10.6,0,0,1,4.3,1.3,9.7,9.7,0,0,1,3.1,2.9h.6l-.8-1.3a8.5,8.5,0,0,0-2.4-2.2,9.6,9.6,0,0,0-3.1-1.1H224Z" transform="translate(-27.4 -84)" style="fill:#540000"/><path d="M223.9,396.4h-.8a12.2,12.2,0,0,0-1.7.5l-.4.2h.5l1.6-.2h.6c.1-.2.1-.4.2-.6Z" transform="translate(-27.4 -84)" style="fill:#540000"/><path d="M227.1,400.9a5.8,5.8,0,0,1-2-1.3,3.8,3.8,0,0,1-.9-1.8,2.4,2.4,0,0,1-.2-.8h-.3v.9a4,4,0,0,0,.8,2.2,4.7,4.7,0,0,0,2.2,1.7,5.8,5.8,0,0,0,2.8.4,5.3,5.3,0,0,0,2.1-.6.8.8,0,0,0-.2-.4A8.1,8.1,0,0,1,227.1,400.9Z" transform="translate(-27.4 -84)" style="fill:#540000"/><path d="M231.5,401.1h-.1a.8.8,0,0,1,.2.4h.1l.5-.2c-.1-.1-.1-.3-.2-.4Z" transform="translate(-27.4 -84)" style="fill:#540000"/><path d="M224,396.5h-.1c-.1.2-.1.4-.2.6h.3Z" transform="translate(-27.4 -84)" style="fill:#540000"/><path d="M235.8,389.5a8.1,8.1,0,0,1,2.6,3.1h.5a6,6,0,0,0-.7-2,8.9,8.9,0,0,0-1.9-2,8.7,8.7,0,0,0-2.5-1,7,7,0,0,0-2.1.1l.2.5A7,7,0,0,1,235.8,389.5Z" transform="translate(-27.4 -84)" style="fill:#540000"/><path d="M238.9,392.7h-.5v.3c.1.1.1.3.2.4h.3v-.6Z" transform="translate(-27.4 -84)" style="fill:#540000"/><path d="M231.9,388.3l-.2-.5h-.5v.4h.7Z" transform="translate(-27.4 -84)" style="fill:#540000"/><path d="M472.5,129c1.1-5.3,2-10.6,2.6-15.9.5-3.8-.2-3.9-.7-.1a166.3,166.3,0,0,1-3,17.4l1.1-1.4Z" transform="translate(-27.4 -84)" style="fill:#540000"/><path d="M295.7,308l2.5,1.9.6.5.6.4,1.2.8,1.1.8,1.2.7,2.2,1.3c1.3.8,2.7,1.4,3.8,2l1.6.7,1.4.6,2.6,1-2.4-1.4-1.3-.7-1.4-1-3.6-2.4-2-1.5a3.9,3.9,0,0,0-1-.8l-1-.9-1.1-.9-.6-.4-.5-.5-2.3-2.1a97.8,97.8,0,0,1-9.2-9.8,6.4,6.4,0,0,0-1-1.3l-3.4.3,2.2,2.8A76.6,76.6,0,0,0,295.7,308Z" transform="translate(-27.4 -84)" style="fill:#540000"/><path d="M325.6,322.9l-.5,1.1a1.7,1.7,0,0,1-.2.5l-.2.4-.3.6-.2.5.3-.4.5-.6.2-.4.3-.4.7-1a4.3,4.3,0,0,1,.4-.7h-.9A.8.8,0,0,1,325.6,322.9Z" transform="translate(-27.4 -84)" style="fill:#540000"/><path d="M327.1,298.3c.3,2,.6,3.8.8,5.7a47,47,0,0,1,.2,5.2v1.3c0,.4-.1.8-.1,1.2a16.4,16.4,0,0,1-.2,2.3l-.3,2.2-.2,1v1c-.2.6-.3,1.2-.5,1.7s-.3,1-.5,1.5h1.1a11.7,11.7,0,0,0,.5-1.1,8.7,8.7,0,0,0,.7-1.7l.2-.5.2-.5.3-1a18,18,0,0,0,.6-2.2,20.5,20.5,0,0,0,.5-2.4c.1-.5.1-.9.2-1.3v-1.3a26.1,26.1,0,0,0,.1-5.6,40.9,40.9,0,0,0-.7-6,65.6,65.6,0,0,0-2.9-10l-2.5.7A87.3,87.3,0,0,1,327.1,298.3Z" transform="translate(-27.4 -84)" style="fill:#540000"/><path d="M326.1,321.4h-1.3l-4.4-.2h-2.3l-2.5-.2-2.5-.3-2.6-.3-2.7-.4-1.4-.2-1.4-.3-2.9-.5-2.9-.6-2.9-.7-3-.8-3.1-.9-3.1-1c-4.1-1.4-8.4-3-12.6-4.9s-8.2-4.1-11.9-6.3l-2.8-1.7-2.7-1.7-2.5-1.8-2.5-1.8-2.4-1.8h-.2l-4-.4.5.4,2.2,1.9,2.4,2,2.5,1.9,2.5,1.8,2.7,1.9,2.8,1.8a127.5,127.5,0,0,0,12.2,6.5,115.6,115.6,0,0,0,13,5l3.1.9,3.2.8,3.1.8,3,.6,3,.5,3,.4,1.4.2,1.4.2,2.8.3,2.6.2h12.8a3,3,0,0,0,.4-1Z" transform="translate(-27.4 -84)" style="fill:#540000"/><path d="M326.1,321.5a3,3,0,0,1-.4,1h.9l.3-.6.3-.5h-1.1Z" transform="translate(-27.4 -84)" style="fill:#540000"/><path d="M244.9,293.9l-1-1-2-1.9-.2-.2a216.5,216.5,0,0,1-49.5-13.1,199.3,199.3,0,0,1-43.8-24.2h-.1a.4.4,0,0,1-.3.6,14,14,0,0,1-3.4.8h-.5a201.7,201.7,0,0,0,46.8,25.8,215.3,215.3,0,0,0,52.8,13.3l1.8.2Z" transform="translate(-27.4 -84)" style="fill:#540000"/><path d="M471.1,131.6A206.2,206.2,0,0,1,460.4,165a221.3,221.3,0,0,1-26.9,46.7,214.2,214.2,0,0,1-37.7,38.4,197.3,197.3,0,0,1-46.2,27.3,199.1,199.1,0,0,1-23.6,8.1l.6,1.3a4.2,4.2,0,0,0,.4,1,182.3,182.3,0,0,0,23.5-8.3A201.5,201.5,0,0,0,397,251.6a221,221,0,0,0,37.7-39,219.1,219.1,0,0,0,26.7-47.1,201.1,201.1,0,0,0,10.9-35.4Z" transform="translate(-27.4 -84)" style="fill:#540000"/><path d="M246.3,292.2l1.2.9,2,1.7a229.7,229.7,0,0,0,34.2.5l-1.8-2.7a214.7,214.7,0,0,1-36.7-1.4h.1Z" transform="translate(-27.4 -84)" style="fill:#540000"/><path d="M298.1,293.8a195.8,195.8,0,0,0,26.4-5.3c-.1-.3-.1-.6-.2-.9a8.8,8.8,0,0,1-.5-1.5,194.1,194.1,0,0,1-26.1,5.1c-4.1.5-8.3.9-12.5,1.2l1.9,2.6C290.8,294.7,294.5,294.3,298.1,293.8Z" transform="translate(-27.4 -84)" style="fill:#540000"/><path d="M287.1,295l-1.9-2.6-3.3.2,1.8,2.7Z" transform="translate(-27.4 -84)" style="fill:#540000"/><path d="M326,285.5l-2.2.6a8.8,8.8,0,0,0,.5,1.5c.1.3.1.6.2.9l2.5-.7a4.2,4.2,0,0,1-.4-1Z" transform="translate(-27.4 -84)" style="fill:#540000"/><path d="M247.5,293.1l-1.2-.9-1-.9h-1.2l-2.4-.3.2.2,2,1.9,1,1,.6.5,4,.4Z" transform="translate(-27.4 -84)" style="fill:#540000"/><path d="M472.5,129l-1.1,1.4-.3,1.2,1.2-1.5a5.2,5.2,0,0,0,.2-1.1Z" transform="translate(-27.4 -84)" style="fill:#540000"/><path d="M431.6,121.6c1.2-2.6.6-2.9-.6-.3a246.8,246.8,0,0,1-22.6,41.3h1.5A242.5,242.5,0,0,0,431.6,121.6Z" transform="translate(-27.4 -84)" style="fill:#540000"/><path d="M398.1,176.7l1.7-.5.5-.2c3.2-4.2,6.3-8.6,9.3-13.1h-1.4C405,167.6,401.6,172.2,398.1,176.7Z" transform="translate(-27.4 -84)" style="fill:#540000"/><path d="M470.4,131.7l-1.2,1.4a8.6,8.6,0,0,0-1.3,1.4l-1.4,1.5-.7.7-.7.7-1.5,1.5-1.6,1.5-1.7,1.4-1.7,1.5-1.8,1.4-1.9,1.4a98.7,98.7,0,0,1-8.3,5.4,89,89,0,0,1-8.8,4.3l-2.2.9-2.2.8-2.1.8-2.1.6-2.1.6-2,.6-1,.2-1,.3-2,.4-1.9.3-1.8.4-3.4.4-3.2.3h-.9l-.3.4h1.3l3.1-.2,3.5-.4,1.8-.3,1.9-.3,2-.4,1-.2,1-.2,2.1-.5,2.1-.6,2.1-.6,2.2-.8,2.2-.7,2.2-.9a93.1,93.1,0,0,0,9-4.4,98.7,98.7,0,0,0,8.3-5.4l1.9-1.5,1.8-1.4,1.8-1.5,1.6-1.5,1.6-1.5,1.5-1.6.7-.7.7-.8,1.4-1.4,1.2-1.5,1.2-1.5.3-.4.3-1.2A14.7,14.7,0,0,0,470.4,131.7Z" transform="translate(-27.4 -84)" style="fill:#540000"/><path d="M408.4,162.6l-.2.3h1.4l.3-.4Z" transform="translate(-27.4 -84)" style="fill:#540000"/><path d="M398.1,176.7l-.9,1.1,2.2-.6.9-1.2-.5.2Z" transform="translate(-27.4 -84)" style="fill:#540000"/><path d="M367.7,180a55.8,55.8,0,0,0-11.3-3.5l-6.4-.9a9.3,9.3,0,0,1,1.4,1.4l4.7.9a59.1,59.1,0,0,1,10.8,3.9,37.5,37.5,0,0,1,4.4,2.4l1.8-1.5A34,34,0,0,0,367.7,180Z" transform="translate(-27.4 -84)" style="fill:#540000"/><path d="M385,194.2l3.8-4.2c3.7-4.2,7.2-8.4,10.6-12.8l-2.2.6c-3.1,3.9-6.2,7.6-9.5,11.2l-3.6,3.9h.1Z" transform="translate(-27.4 -84)" style="fill:#540000"/><path d="M384.2,193h-.1l-1.8,1.9.8,1.4,1.9-2Z" transform="translate(-27.4 -84)" style="fill:#540000"/><path d="M357.3,195.3h2.3q6.6-5.1,12.9-10.5l-1.2-.8C366.8,188.1,362.1,191.8,357.3,195.3Z" transform="translate(-27.4 -84)" style="fill:#540000"/><path d="M380.7,177.5l-1.3-.4-6.3,5.6,1.1.7Z" transform="translate(-27.4 -84)" style="fill:#540000"/><path d="M373.1,182.7l-1.8,1.5,1.2.8,1.7-1.6Z" transform="translate(-27.4 -84)" style="fill:#540000"/><path d="M409.8,144.7c1.5-2,1-2.3-.5-.4a262,262,0,0,1-29.2,32.2l1.2.3h.1A247.1,247.1,0,0,0,409.8,144.7Z" transform="translate(-27.4 -84)" style="fill:#540000"/><path d="M381.1,177.6a31.7,31.7,0,0,0,9.5,1.2,28.4,28.4,0,0,0,6.6-1l.9-1.1a35.7,35.7,0,0,1-7.5,1.1,33.7,33.7,0,0,1-9.2-1,2.3,2.3,0,0,1-.7.7Z" transform="translate(-27.4 -84)" style="fill:#540000"/><path d="M380.1,176.5l-.7.6,1.3.4a2.3,2.3,0,0,0,.7-.7h-.1Z" transform="translate(-27.4 -84)" style="fill:#540000"/><path d="M198.2,209.7l-.9-.6-.5-.2-.5-.3-2.1-.9a36.9,36.9,0,0,0-9.9-2.8,45.4,45.4,0,0,0-10.4-.1l-2.3.4h-1l-1.1.2-1.9.6-1.8.6a20.8,20.8,0,0,0-3,1.2l-1.2.5-.9.6-1.8,1,2-.5,1-.2,1.3-.3,3-.5,1.8-.2h6.2a82.1,82.1,0,0,1,9.5.6,77.4,77.4,0,0,1,9.4,2l2.1.7h.5l.4.2,1,.4,1.2.4a24.4,24.4,0,0,0,.1-2.7C198.4,209.7,198.3,209.7,198.2,209.7Z" transform="translate(-27.4 -84)" style="fill:#540000"/><path d="M198.3,212.5a54.4,54.4,0,0,1-2.2,12.8h1.8a54.9,54.9,0,0,0,2.2-12.1l-1.2-.5Z" transform="translate(-27.4 -84)" style="fill:#540000"/><path d="M200,210.7l-1.6-.9a24.4,24.4,0,0,1-.1,2.7l.6.2,1.2.5c0-.7.1-1.5.1-2.3Z" transform="translate(-27.4 -84)" style="fill:#540000"/><path d="M196.8,228.8h-1.9a53.4,53.4,0,0,1-8.2,15l2.1.2A59.8,59.8,0,0,0,196.8,228.8Z" transform="translate(-27.4 -84)" style="fill:#540000"/><path d="M178.6,254.4l-.5-.2Z" transform="translate(-27.4 -84)" style="fill:#540000"/><path d="M186.1,247.5l-2.2-.2c-1.2,1.3-2.4,2.5-3.7,3.7l1.8.8C183.4,250.4,184.8,249,186.1,247.5Z" transform="translate(-27.4 -84)" style="fill:#540000"/><path d="M382.3,194.8a246.1,246.1,0,0,1-57.2,44.4l-4.4,2.5-4.4,2.3-4.5,2.2-4.6,2.1c-6.1,2.8-12.4,5.2-18.7,7.4a163.7,163.7,0,0,1-39.2,8.1,140.2,140.2,0,0,1-67.3-12l-2.7,2.4a1,1,0,0,1-.7.2,142.2,142.2,0,0,0,71,12.4,164.5,164.5,0,0,0,39.8-8.6c6.4-2.2,12.7-4.8,18.8-7.6l4.6-2.2,4.6-2.3,4.4-2.4,4.4-2.5a248.2,248.2,0,0,0,56.9-45Z" transform="translate(-27.4 -84)" style="fill:#540000"/><path d="M179.3,254.2l2.7-2.4-1.8-.8-2.2,1.9a.9.9,0,0,0,.1,1.3l.5.2A1,1,0,0,0,179.3,254.2Z" transform="translate(-27.4 -84)" style="fill:#540000"/><path d="M303.5,228a251.7,251.7,0,0,0,55.3-31.9h-2.5a252.2,252.2,0,0,1-53.7,29.9A256.1,256.1,0,0,1,188.8,244c-.8,1.2-1.8,2.3-2.7,3.5A259.2,259.2,0,0,0,303.5,228Z" transform="translate(-27.4 -84)" style="fill:#540000"/><path d="M188.8,244l-2.1-.2c-.9,1.2-1.8,2.4-2.8,3.5l2.2.2C187,246.3,188,245.2,188.8,244Z" transform="translate(-27.4 -84)" style="fill:#540000"/><path d="M257.1,217.3a189.9,189.9,0,0,0,56.5-32.2l-.5-.2-.6-.3a189.7,189.7,0,0,1-114.6,40.7c-.3,1.2-.7,2.3-1.1,3.5A193.6,193.6,0,0,0,257.1,217.3Z" transform="translate(-27.4 -84)" style="fill:#540000"/><path d="M197.9,225.3h-1.8a35.9,35.9,0,0,1-1.2,3.5h1.9C197.2,227.6,197.6,226.5,197.9,225.3Z" transform="translate(-27.4 -84)" style="fill:#540000"/><path d="M314.1,184.7a168.7,168.7,0,0,0,13.2-12.2c1-1,.6-1.5-.5-.5A177,177,0,0,1,313,184.2h.3Z" transform="translate(-27.4 -84)" style="fill:#540000"/><path d="M353.8,195a141.1,141.1,0,0,1-15.7-2.5,135.3,135.3,0,0,1-15.4-4.4l-3.3-1.2-.8-.3-.8-.4-1.6-.6-2.1-.9-.5.4,2.4,1.1,1.5.7.8.3.8.3,3.3,1.4a140.6,140.6,0,0,0,15.4,4.6,124.4,124.4,0,0,0,15.9,2.3l2.6.2,1-.7Z" transform="translate(-27.4 -84)" style="fill:#540000"/><path d="M313.3,184.3H313l-.5.4.6.3.5.2.5-.4Z" transform="translate(-27.4 -84)" style="fill:#540000"/><path d="M358.2,195.4h-.9l-1,.7h2.5l.8-.6h-1.4Z" transform="translate(-27.4 -84)" style="fill:#540000"/><path d="M352.4,87.1a405.8,405.8,0,0,0-121.5,3.2c-8.6,1.7-17.1,3.4-25.5,5.6L199,97.5l-1.6.4-1.5.5-3.2.9-6.2,1.8-3.2.9-3.1,1c-4.2,1.3-8.3,2.8-12.4,4.3l-6.1,2.4-3.1,1.3-3,1.3-1.5.7-1.5.7-3,1.4-3,1.6-1.4.7-1.5.8-2.9,1.7-2.9,1.7-1.4.8-1.4,1-2.8,1.8-2.7,2-1.4,1-1.3,1-2.7,2.1-2.6,2.2-1.3,1.1-1.2,1.2-2.5,2.3-2.3,2.5-2.4,2.5-4.3,5.4c-.7,1-1.4,1.9-2,2.9l-1,1.4-.9,1.5a81.8,81.8,0,0,0-6.4,12.5,78.2,78.2,0,0,0-4.5,13.4c-.2,1.2-.5,2.3-.7,3.5l-.4,1.8-.2,1.7-.3,1.8-.2,1.8v3.6a65.2,65.2,0,0,0,2.5,22.4l.2-.2a58.6,58.6,0,0,1,3-5.5,65.4,65.4,0,0,1-1.4-16.5v-3.3l.2-1.7c.1-.6.1-1.1.2-1.7l.3-1.6.3-1.7c.2-1.1.4-2.2.7-3.3a81.3,81.3,0,0,1,4-12.7,89,89,0,0,1,6.1-11.9l.8-1.4,1-1.4a25.3,25.3,0,0,1,1.8-2.7c1.3-1.8,2.7-3.6,4.1-5.2s1.5-1.7,2.2-2.5l2.3-2.4,2.3-2.3,1.2-1.1,1.2-1.1,2.5-2.1,2.5-2.1,1.3-1,1.3-1,2.7-1.9,2.7-1.8,1.3-.9,1.4-.9,2.8-1.7,2.8-1.6,1.4-.8,1.5-.8,2.9-1.5,2.9-1.4,1.4-.7,1.5-.7,3-1.3,3-1.3,6-2.4c4-1.6,8.1-3.1,12.2-4.4l3.1-1,3.1-1,6.2-1.9,3.2-.9,1.5-.5,1.6-.4,6.3-1.6c8.3-2.3,16.8-4,25.2-5.8A404,404,0,0,1,350,88.6l.8-.5Z" transform="translate(-27.4 -84)" style="fill:#540000"/><path d="M436.2,107a404.3,404.3,0,0,0-82.3-19.7l-2.4,1.5a396.4,396.4,0,0,1,84.4,19C439.5,109,439.7,108.2,436.2,107Z" transform="translate(-27.4 -84)" style="fill:#540000"/><path d="M390.8,129.1A350,350,0,0,0,320,113.4l-1.2,1.2a358.3,358.3,0,0,1,71.8,15.1C393.6,130.6,393.8,130,390.8,129.1Z" transform="translate(-27.4 -84)" style="fill:#540000"/><path d="M320.3,113.2l2.8-2.8,3.2-2.9,3.7-3.2,2-1.7,2-1.7a18.4,18.4,0,0,0,2.2-1.7l1.1-.8,1.2-.9,2.4-1.7,2.4-1.8,2.6-1.7,2.7-1.7,2.7-1.7h.2l-1.5-.2-1.9,1.2-2.7,1.8-2.5,1.8-2.5,1.7-2.3,1.8-1.2.9-1.1.9-2.2,1.7-2,1.7-2,1.7-3.6,3.3-3.2,3.1a35,35,0,0,0-2.7,2.8.8.8,0,0,0-.4.4h.3Z" transform="translate(-27.4 -84)" style="fill:#540000"/><path d="M319.7,113.4l-1.2,1.2h.3l1.2-1.2Z" transform="translate(-27.4 -84)" style="fill:#540000"/><path d="M352.4,87.1l-1.6,1-.8.5,1.5.2,2.4-1.5Z" transform="translate(-27.4 -84)" style="fill:#540000"/><path d="M302.5,113.3c5.3.3,10.7.7,16,1.3l1.2-1.2c-5.3-.6-10.5-1.1-15.8-1.5l-.7.7A4.6,4.6,0,0,0,302.5,113.3Z" transform="translate(-27.4 -84)" style="fill:#540000"/><path d="M302.6,111.8a361.5,361.5,0,0,0-84.4,4.1c-7.2,1.3-14.4,2.6-21.5,4.3l-5.3,1.3-1.3.3-1.3.4-2.7.7-5.3,1.4-2.6.7-2.6.8c-3.5,1-7,2.2-10.5,3.4l-5.1,1.9-2.6,1-2.5,1-1.3.5-1.2.6-2.6,1.1-2.4,1.2-1.3.6-1.2.6-2.5,1.3-2.4,1.3-1.2.7-1.1.7-2.4,1.5-2.3,1.5-1.2.8-1.1.8-2.2,1.7-2.2,1.7-1.1.9-1,.9-2.1,1.8-2,2-1.9,1.9c-1.3,1.4-2.5,2.8-3.7,4.3s-1.1,1.4-1.6,2.2l-.9,1.1-.7,1.2a72.3,72.3,0,0,0-5.5,9.8,65.5,65.5,0,0,0-3.7,10.5,23,23,0,0,0-.6,2.8l-.3,1.3-.3,1.4a6.8,6.8,0,0,1-.2,1.4v1.4l-.2,1.4v1.4a50.6,50.6,0,0,0,1.4,15,6.1,6.1,0,0,1,3.7-1,45.7,45.7,0,0,1-1.4-13.8v-3.9a6.9,6.9,0,0,0,.2-1.3l.2-1.3.3-1.3a24.4,24.4,0,0,1,.6-2.6,58.9,58.9,0,0,1,3.4-10,56.1,56.1,0,0,1,5.1-9.3l.7-1.1.8-1.1a17.7,17.7,0,0,1,1.6-2.2c1.1-1.4,2.2-2.7,3.4-4l1.8-1.9,1.9-1.9,2-1.8,1-.9,1-.9,2.1-1.6,2.2-1.7,1-.8,1.1-.7,2.3-1.5,2.2-1.4,1.2-.8,1.1-.6,2.4-1.4,2.4-1.2,1.2-.7,1.2-.6,2.4-1.1,2.4-1.2,1.3-.5,1.2-.5,2.5-1.1,2.5-1,5.1-1.9c3.4-1.2,6.8-2.4,10.3-3.4l2.6-.8,2.6-.8,5.2-1.4,2.6-.8,1.3-.3,1.3-.4,5.3-1.3c7-1.8,14.2-3.1,21.3-4.5a362.7,362.7,0,0,1,82.6-4.9l1.3-1.3Z" transform="translate(-27.4 -84)" style="fill:#540000"/><path d="M358.5,150.6A184.7,184.7,0,0,0,307,132a161.9,161.9,0,0,0-17.2-2.5l-.9,1.6c6,.5,11.9,1.3,17.9,2.4a178.3,178.3,0,0,1,51.4,17.8C359.9,152.2,360.2,151.6,358.5,150.6Z" transform="translate(-27.4 -84)" style="fill:#540000"/><path d="M252.3,129.7l-4.9.6c3.2.3,6.5.7,9.7,1.2a173.3,173.3,0,0,1,31.4-.4l.8-1.7A176,176,0,0,0,252.3,129.7Z" transform="translate(-27.4 -84)" style="fill:#540000"/><path d="M290.1,129.1l1.1-1.8,1.3-1.9c.8-1.3,1.9-2.7,2.9-4.1a99.7,99.7,0,0,1,7.1-8h-1.3a83.4,83.4,0,0,0-6.4,7.6c-1.1,1.5-2.1,2.9-2.9,4.2l-1.2,2-1.1,1.9-.3.5h.5Z" transform="translate(-27.4 -84)" style="fill:#540000"/><path d="M289.3,129.4l-.8,1.7h.4l.9-1.6Z" transform="translate(-27.4 -84)" style="fill:#540000"/><path d="M302.5,111.9l-1.3,1.3h1.3a4.6,4.6,0,0,1,.7-.7l.7-.7h-1.4Z" transform="translate(-27.4 -84)" style="fill:#540000"/><path d="M149.8,183.9a.3.3,0,0,0,.1-.2c0-.2,0-.3.1-.4h-.1l-2.7.4-2.8.6-1.5.4-1.4.4a58.5,58.5,0,0,0-12.6,5.3,59.4,59.4,0,0,0-10.9,8.1,57,57,0,0,0-7.3,8.3c-.9,1.3-1.8,2.5-2.4,3.6l-.2.4.9.6h0l.3-.4,2.8-3a101.9,101.9,0,0,1,8-7.1,106.5,106.5,0,0,1,10.8-7.2,76.5,76.5,0,0,1,11.6-5.6l1.4-.6,1.3-.4,2.7-.9,1.3-.4Z" transform="translate(-27.4 -84)" style="fill:#540000;fill-rule:evenodd"/><path d="M154.1,243.7l-2.2-.7-1.3-.4a42.8,42.8,0,0,1-4.4-2l-1.1-.5-1.1-.7a16.9,16.9,0,0,0-2.7-1.2l-1.8-.3a3.6,3.6,0,0,0-2,.6,2.4,2.4,0,0,0-.8.6,2.4,2.4,0,0,0-.6.9,3.4,3.4,0,0,0-.5,1.7,6.3,6.3,0,0,0,.4,3.1,15.7,15.7,0,0,0,1.3,2.3,30.8,30.8,0,0,0,5.8,6.4A12.5,12.5,0,0,0,145,255a5.5,5.5,0,0,0,1.4.9h.9a9.2,9.2,0,0,0,2.8-1.4,10.2,10.2,0,0,0,3.1-3.4,10.6,10.6,0,0,0,1.1-4.4,2,2,0,0,0,.1-.7Q154.3,244.6,154.1,243.7Zm-4.4,5.3a19.3,19.3,0,0,1-3.8,5.1c0,.1-.1.1-.1.2a14.9,14.9,0,0,1-1.7-1.8,47.1,47.1,0,0,1-4.7-6.6,6,6,0,0,1-1.1-3.8l.3-.8a.2.2,0,0,1,.2-.2l.2-.2h1.4a13.8,13.8,0,0,1,2.2,1l1.2.7,1.2.6a30.6,30.6,0,0,0,4.8,1.7l1.5.4A14.8,14.8,0,0,1,149.7,249Z" transform="translate(-27.4 -84)" style="fill:#540000"/><path d="M109.5,210.5a17,17,0,0,0,.4,2.2,3.5,3.5,0,0,0,.3,1.4,46.1,46.1,0,0,0,1.3,4.6l.5,1.2.5,1.1a19.9,19.9,0,0,1,.9,2.9,5.1,5.1,0,0,1,.1,1.8,4.6,4.6,0,0,1-.8,1.9l-.8.7-.9.5-1.8.3a5.8,5.8,0,0,1-3-.8,9.6,9.6,0,0,1-2.2-1.6,29.5,29.5,0,0,1-5.6-6.5l-1.3-2-.7-1.5c0-.2.1-.3.1-.5l.2-.4a12.6,12.6,0,0,1,1.8-2.7,10.1,10.1,0,0,1,3.7-2.5,10.6,10.6,0,0,1,4.5-.7h.7Zm-5.9,3.7a22,22,0,0,0-5.5,3.1l-.2.2,1.6,1.8a37.3,37.3,0,0,0,6.1,5.5,5.6,5.6,0,0,0,3.6,1.5h.8l.2-.2.2-.2a.8.8,0,0,0,.2-.5v-.9c-.2-.7-.5-1.5-.8-2.3l-.5-1.2c-.1-.5-.3-.9-.4-1.3s-.9-3.4-1.2-5-.1-1.1-.1-1.6A22.5,22.5,0,0,0,103.6,214.2Z" transform="translate(-27.4 -84)" style="fill:#540000"/></g><g id="Text"><rect x="38.6" y="36" width="402.4" height="62.64" rx="31.3" ry="31.3" style="fill:#fff;stroke:#000;stroke-miterlimit:10;stroke-width:4.629627674818039px"/><path d="M96.8,133.7l-5-.3H88a6.6,6.6,0,0,0-2.6,1.5l-3.9,3-3.2,1.6-.3.2a5,5,0,0,0-.8,3.1,9,9,0,0,0,.6,3.4c.4.9,1.5,1.7,3.7,2.6l9.1,3.7a10.2,10.2,0,0,1,3.7,2,5.6,5.6,0,0,1,1.1,3.8v.6a11.4,11.4,0,0,1-4.6.7,13.1,13.1,0,0,1-3.8-.6c-3.8-.9-4.6-1.6-4.7-1.8h0a1.1,1.1,0,0,0,.3-.7.9.9,0,0,0-.9-1c-.4,0-.6,0-4.2,3.7-.9.9-1.1,1.3-1.1,1.7a.7.7,0,0,0,.2.6c2.6,2.6,6.4,3.9,11.3,3.9a11,11,0,0,0,4.9-.9h.1l2.2-1.8a14,14,0,0,1,2.4-2.2,10.6,10.6,0,0,1,1.8-1.3c1.8-1.2,2.7-2.4,2.7-3.8,0-3.8-3.1-7-9.1-9.4l-6.1-2.4a9.3,9.3,0,0,1-2.1-1,1.5,1.5,0,0,1-.8-1.4,3.2,3.2,0,0,1,.6-2.2h6.4c3.8.6,5,1,5.4,1.2a5.8,5.8,0,0,1-.2,1,.7.7,0,0,0,.1.6h0l.3.4h.6c.2-.1.4-.1,2.3-1.9l2.1-2.2a3.3,3.3,0,0,0,.8-1.6v-.3l-.2-.4C101.3,134.7,99.6,134,96.8,133.7Z" transform="translate(-27.4 -84)"/><path d="M153.2,168.1h-.3c-1.7.9-5,1.4-9.6,1.4l-2.9-.2-15-1.9,2-33.2c0-.2,0-.4-.2-.5l-.5-.2H115.1a.9.9,0,0,0-.7.6.7.7,0,0,0,.5.8l3.6,1.5a1.9,1.9,0,0,1,1,1.8,4.1,4.1,0,0,1-.1,1h0l-2,32.6a.8.8,0,0,0,.7.8l19,1.4,4.8.2a14.7,14.7,0,0,0,9.6-3.6l2.1-1.4a.7.7,0,0,0,.3-1A.9.9,0,0,0,153.2,168.1Z" transform="translate(-27.4 -84)"/><path d="M181.1,163.8a5.5,5.5,0,0,1-3.7-1.6,3.8,3.8,0,0,1-1.2-3.5h0l-.3-24.3a.7.7,0,0,0-.7-.7H163a.7.7,0,0,0-.7.6.8.8,0,0,0,.6.8,10.3,10.3,0,0,1,3.6,1.3,3.2,3.2,0,0,1,1.4,2.9v18.8c-.9,1.5-2.4,2.3-4.8,2.3s-6.2-1.4-9.6-4.3-5.3-5.9-5.3-8.7,1.9-6.8,5.6-12.3a.7.7,0,0,0,0-.9.6.6,0,0,0-.5-.2h-.4a20,20,0,0,0-6.9,5.2,8.8,8.8,0,0,0-2.3,3c-1.9,3.3-2.8,5.8-2.8,7.6s1.3,5.3,3.8,8.2a30.1,30.1,0,0,0,7,5.9c2.4,1.5,3.4,1.7,3.9,1.7a17.3,17.3,0,0,0,7.1-1.4,54.9,54.9,0,0,0,5.2-2.9v2.9a.7.7,0,0,0,.7.7l12.5.3a.7.7,0,0,0,0-1.4Z" transform="translate(-27.4 -84)"/><path d="M243.3,141.5a21.7,21.7,0,0,0-8.6-6.8,8.7,8.7,0,0,0-3.3-1c-3.5,0-4.1.3-4.4.5l-5.2,4.2h-.1l-1.9,1.9a14.1,14.1,0,0,0-4.5-4.6,13.1,13.1,0,0,0-7.1-2.1h-1.8a72.7,72.7,0,0,0-6.5,3.9,39.1,39.1,0,0,0-5.9,5c-2.3,2.4-3.5,5-3.4,7.7.1,4.9,2.8,10.3,8.1,15.9a50.1,50.1,0,0,0,9.4,8l.4.2.6-.3a.7.7,0,0,0,0-.9,48.8,48.8,0,0,1-6.1-9.2c-2.3-4.3-3.5-7.7-3.7-10.1-.3-4.4-.2-5.8-.1-6.2a11.3,11.3,0,0,1,2.2-4.9c1.5-1.8,3-2.6,4.6-2.6s4.2,1.4,6.4,4.1h0a4.5,4.5,0,0,1,1.4,3.3h0l-.3,17.6a.9.9,0,0,0,.3.6h.7l5.6-2.1a.8.8,0,0,0,.5-.7v-10a40.2,40.2,0,0,1,.1-5.2,9.8,9.8,0,0,1,1.7-4.5,8.3,8.3,0,0,1,3.6-3.3l2.4-.7c1.9,0,4.2,1.5,7,4.4a19.1,19.1,0,0,1,2.2,2.5l.7,2.8h0l.2.4c0,3.3-1.3,7.2-3.8,11.5-1.1,2-3.3,5.5-6.3,10.7a.7.7,0,0,0,.1.9h.5c.2,0,.4,0,.5-.2l4.1-4.3c8.3-8.6,12.3-15.6,12.3-21.4a6.8,6.8,0,0,0-.8-3.1A21.1,21.1,0,0,0,243.3,141.5Z" transform="translate(-27.4 -84)"/><path d="M286.8,154a6.4,6.4,0,0,0-2.9-5.3,13.6,13.6,0,0,0-5.2-2.2l2.7-1.5a5.8,5.8,0,0,0,2.7-4.9c0-2.1-1.2-3.8-3.6-5a12.7,12.7,0,0,0-5.8-1.4h-20a.7.7,0,0,0-.7.6.8.8,0,0,0,.6.8c3.1.5,4.2.9,4.6,1.2s1.2,1.5,1.2,3.1v23.5a4.4,4.4,0,0,0,.2,1.5c.4.7,1.2,1,3,1h3.5a35.8,35.8,0,0,0,9.5-1.2,17.6,17.6,0,0,0,6.7-3.4A8.4,8.4,0,0,0,286.8,154Zm-11.6-8.6a9.2,9.2,0,0,1-3.9.9h-3.2v-8h2.4a9.8,9.8,0,0,1,4.6,1.1,3.7,3.7,0,0,1,2.3,3.3C277.4,143.9,276.7,144.8,275.2,145.4Zm-7.1,15.2V149.9h.9a14.9,14.9,0,0,1,7.3,1.6c2.5,1.2,3.7,3,3.7,5.4a3.8,3.8,0,0,1-2.2,3.3,8.3,8.3,0,0,1-4.3,1.3h-5.3A2.8,2.8,0,0,1,268.1,160.6Z" transform="translate(-27.4 -84)"/><path d="M299.2,165.3l11.6-.2a.6.6,0,0,0,.6-.6.7.7,0,0,0-.4-.8c-1.3-.5-2.9-2.7-2.9-10.4a66.7,66.7,0,0,1,2.1-16.8h.9a4.5,4.5,0,0,1,3.8,1.9,7.1,7.1,0,0,1,1.3,4.3,6.3,6.3,0,0,1-1.9,5,6.1,6.1,0,0,1-4.4,1.6h-.7a.7.7,0,0,0-.6,1.1,35.5,35.5,0,0,0,5.8,6.7l6.2,6.1A59.2,59.2,0,0,0,334,173.6a33.8,33.8,0,0,0,16.4,4.6,24.4,24.4,0,0,0,5.5-.6.8.8,0,0,0,.6-.8.7.7,0,0,0-.7-.6h-1.2a25.6,25.6,0,0,1-9.7-2.3,46.8,46.8,0,0,1-13.6-9.7l-7.2-7.2a36.3,36.3,0,0,1-5.5-7.2c4.5-2.6,6.7-5.3,6.7-8.2a5.9,5.9,0,0,0-2.9-4.9,16.4,16.4,0,0,0-5.2-2.3,42.3,42.3,0,0,0-8.9-.8h-8.8a.7.7,0,0,0-.7.7c0,.4.2.7.6.7a2.7,2.7,0,0,1,2.4,2.3,14.2,14.2,0,0,1,.4,4.3c0,1.1-.1,2.6-.1,4.5-.7,12.9-2.2,16.9-3.4,17.9a.8.8,0,0,0-.2.8A.8.8,0,0,0,299.2,165.3Z" transform="translate(-27.4 -84)"/><path d="M345,136.6v28.2a.7.7,0,0,0,.4.6l7.6,3.3h.3l.4-.2a.5.5,0,0,0,.3-.5v-26h0v-.5c0-1.2.7-2.1,2.1-2.8a18.7,18.7,0,0,1,3.9-1.4.6.6,0,0,0,.4-.8.7.7,0,0,0-.7-.6H345.7A.7.7,0,0,0,345,136.6Z" transform="translate(-27.4 -84)"/><path d="M346.4,131.9l2.8,2.7h.1a2.2,2.2,0,0,0,.9.7h.4l.5-.2c1.3-1.2,2.5-2.4,3.5-3.5s1.2-1.4,1.2-1.8-.1-.6-2-2.3l-2-1.7c-1-.9-1.4-1.1-1.8-1.1s-.6.2-1.3,1l-2.4,2.6-1.3,1.5a.8.8,0,0,0,.1.8Z" transform="translate(-27.4 -84)"/><path d="M369.9,135.3a16.4,16.4,0,0,1,4.1,1.3,3.8,3.8,0,0,1,1.6,3.2v24.9a1.4,1.4,0,0,0,.2.6h.7l6.9-2.1a.9.9,0,0,0,.6-.7V143.3a6.2,6.2,0,0,1,5.9-6c2.6,0,5.2,1.5,7.7,4.3s3.7,5.6,3.7,8.3c0,.9-.9,3.5-5,10.7a41.4,41.4,0,0,1-2.3,3.5l-2.7,3.3-2.2,2.9h0a2.9,2.9,0,0,0-.5,1c-.1.2,0,.3,0,.5a1.1,1.1,0,0,0,.9.5c.4,0,1.1-.3,4.1-3.2l5.9-5.7c6.2-6,9.2-10.9,9.2-15.1a13.1,13.1,0,0,0-3.3-8.3,20.9,20.9,0,0,0-6.9-5.7A10.1,10.1,0,0,0,394,133a13.4,13.4,0,0,0-4.2,1,22.2,22.2,0,0,0-5.8,3.2v-2.6a.7.7,0,0,0-.7-.7H370a.7.7,0,0,0-.7.6A.8.8,0,0,0,369.9,135.3Z" transform="translate(-27.4 -84)"/><path d="M455.7,147.8l-.5-.2h-5.5c-2.2,0-5,1-8.6,3.1a.7.7,0,0,0,.4,1.3h0l5.1-.2h2.1l-.6,8.4a19.4,19.4,0,0,1-4,.4A12.9,12.9,0,0,1,433,155a15.7,15.7,0,0,1-1.8-3.1,8.4,8.4,0,0,1-.5-3.4,16.4,16.4,0,0,1,1.6-7.4c1.3-2.7,3-4.1,5.3-4.1h.4c6.9,0,10.8,2.2,11.9,6.7a.9.9,0,0,0,.6.6h.1a.7.7,0,0,0,.6-.4c1.1-1.7,2.6-4.5,4.4-8.1a.6.6,0,0,0,0-.6.7.7,0,0,0-.5-.4,90.2,90.2,0,0,0-14.1-1.3c-10.1,0-16.4,4.1-18.6,12a18.1,18.1,0,0,0-.7,4.9,13.3,13.3,0,0,0,5.2,10.8,17.1,17.1,0,0,0,11.4,4,23.2,23.2,0,0,0,9.4-2.1v.3a31.3,31.3,0,0,1-.5,4.9c-.4,1.2-.8,2.7-1.2,4.4a.7.7,0,0,0,.2.6.5.5,0,0,0,.5.3c.4,0,.7-.2,1.2-.7h.1a36.3,36.3,0,0,1,2.5-2.7l.2-.3,2.4-2.6h0a8.6,8.6,0,0,0,1.4-4l1.4-14.7A1.4,1.4,0,0,0,455.7,147.8Z" transform="translate(-27.4 -84)"/></g></svg>