<?xml version="1.0" encoding="iso-8859-1"?>
<!-- Generator: Adobe Illustrator 19.0.0, SVG Export Plug-In . SVG Version: 6.00 Build 0)  -->
<svg version="1.1" id="Layer_1" xmlns="http://www.w3.org/2000/svg" xmlns:xlink="http://www.w3.org/1999/xlink" x="0px" y="0px"
	 viewBox="0 0 512 512" style="enable-background:new 0 0 512 512;" xml:space="preserve">
<g>
	<g>
		<path d="M422.957,400.696h-33.391c-22.568,0-41.691-15.007-47.932-35.564c36.976-8.572,64.628-41.759,64.628-81.306v-51.285
			c56.56-8.126,100.174-56.898,100.174-115.672c0-9.22-7.475-16.696-16.696-16.696c-33.263,0-63.326,13.97-84.628,36.349
			c-6.574-39.514-40.979-69.74-82.328-69.74H256c-46.03,0-83.478,37.448-83.478,83.478v133.565
			c0,39.546,27.651,72.734,64.628,81.306c-6.241,20.557-25.364,35.564-47.932,35.564h-33.391c-5.852,0-11.47,1.018-16.696,2.872
			v-36.263h16.696c9.22,0,16.696-7.475,16.696-16.696s-7.475-16.696-16.696-16.696H139.13V16.696C139.13,7.475,131.655,0,122.435,0
			c-46.03,0-83.478,37.448-83.478,83.478v250.435H22.261c-9.22,0-16.696,7.475-16.696,16.696s7.475,16.696,16.696,16.696h16.696v128
			c0,9.22,7.475,16.696,16.696,16.696h66.783h333.913c9.22,0,16.696-7.475,16.696-16.696v-44.522
			C473.043,423.165,450.574,400.696,422.957,400.696z M470.9,135.709c-7.161,30.933-31.563,55.334-62.495,62.495
			C415.566,167.272,439.967,142.87,470.9,135.709z M105.739,478.609H72.348V367.304h33.391
			C105.739,379.602,105.739,466.686,105.739,478.609z M105.739,333.913H72.348V83.478c0-21.768,13.956-40.336,33.391-47.226V333.913
			z M205.913,150.261c0-27.618,22.469-50.087,50.087-50.087h66.783c27.618,0,50.087,22.469,50.087,50.087v16.696H205.913V150.261z
			 M205.913,200.348H372.87v33.391H205.913V200.348z M205.913,283.826V267.13H372.87v16.696c0,27.618-22.469,50.087-50.087,50.087
			H256C228.382,333.913,205.913,311.444,205.913,283.826z M319.945,396.617l-30.554,30.554l-30.554-30.554
			c5.808-8.76,10.012-18.67,12.181-29.313h36.746C309.934,377.947,314.138,387.859,319.945,396.617z M237.954,478.609H139.13
			v-27.826c0-9.206,7.49-16.696,16.696-16.696h33.391c16.99,0,32.798-5.117,45.998-13.869l30.565,30.564L237.954,478.609z
			 M439.652,478.609H285.176l58.391-58.39c13.2,8.752,29.008,13.869,45.998,13.869h33.391c9.206,0,16.696,7.49,16.696,16.696
			V478.609z"/>
	</g>
</g>
<g>
</g>
<g>
</g>
<g>
</g>
<g>
</g>
<g>
</g>
<g>
</g>
<g>
</g>
<g>
</g>
<g>
</g>
<g>
</g>
<g>
</g>
<g>
</g>
<g>
</g>
<g>
</g>
<g>
</g>
</svg>
