<?xml version="1.0" encoding="iso-8859-1"?>
<!-- Generator: Adobe Illustrator 19.0.0, SVG Export Plug-In . SVG Version: 6.00 Build 0)  -->
<svg version="1.1" id="Layer_1" xmlns="http://www.w3.org/2000/svg" xmlns:xlink="http://www.w3.org/1999/xlink" x="0px" y="0px"
	 viewBox="0 0 512 512" style="enable-background:new 0 0 512 512;" xml:space="preserve">
<g>
	<g>
		<path d="M322.783,0H189.217C87.952,0,5.565,82.386,5.565,183.652c0,9.22,7.475,16.696,16.696,16.696h116.87v83.478
			c0,39.546,27.651,72.734,64.628,81.306c-6.241,20.557-25.364,35.564-47.932,35.564h-33.391c-27.618,0-50.087,22.469-50.087,50.087
			v44.522c0,9.22,7.475,16.696,16.696,16.696h333.913c9.22,0,16.696-7.475,16.696-16.696v-44.522
			c0-27.618-22.469-50.087-50.087-50.087h-33.391c-22.568,0-41.691-15.007-47.932-35.564c36.976-8.572,64.628-41.759,64.628-81.306
			v-83.478h116.87c9.22,0,16.696-7.475,16.696-16.696C506.435,82.386,424.048,0,322.783,0z M204.563,478.609h-98.824v-27.826
			c0-9.206,7.49-16.696,16.696-16.696h33.391c16.99,0,32.798-5.117,45.998-13.869l30.565,30.564L204.563,478.609z M225.446,396.617
			c5.808-8.76,10.012-18.67,12.181-29.313h36.746c2.169,10.643,6.373,20.555,12.181,29.313L256,427.172L225.446,396.617z
			 M310.176,420.218c13.2,8.752,29.008,13.869,45.998,13.869h33.391c9.206,0,16.696,7.49,16.696,16.696v27.826H251.785
			L310.176,420.218z M339.478,283.826c0,27.618-22.469,50.087-50.087,50.087h-66.783c-27.618,0-50.087-22.469-50.087-50.087v-83.478
			h166.957V283.826z M39.878,166.957c7.758-69.849,63.594-125.4,133.569-132.734c-21.19,21.166-34.316,50.402-34.316,82.647
			c0,9.22,7.475,16.696,16.696,16.696s16.696-7.475,16.696-16.696c0-40.314,28.725-74.042,66.783-81.799v81.799
			c0,9.22,7.475,16.696,16.696,16.696c9.22,0,16.696-7.475,16.696-16.696V35.071c38.057,7.756,66.783,41.484,66.783,81.799
			c0,9.22,7.475,16.696,16.696,16.696c9.22,0,16.696-7.475,16.696-16.696c0-32.245-13.126-61.481-34.316-82.647
			c69.975,7.334,125.811,62.885,133.569,132.734C462.7,166.957,59.326,166.957,39.878,166.957z"/>
	</g>
</g>
<g>
	<g>
		<path d="M272.696,267.13h-33.391c-9.22,0-16.696,7.475-16.696,16.696c0,9.22,7.475,16.696,16.696,16.696h33.391
			c9.22,0,16.696-7.475,16.696-16.696C289.391,274.606,281.916,267.13,272.696,267.13z"/>
	</g>
</g>
<g>
</g>
<g>
</g>
<g>
</g>
<g>
</g>
<g>
</g>
<g>
</g>
<g>
</g>
<g>
</g>
<g>
</g>
<g>
</g>
<g>
</g>
<g>
</g>
<g>
</g>
<g>
</g>
<g>
</g>
</svg>
